<svg width="21" height="18" viewBox="0 0 21 18" fill="none" xmlns="http://www.w3.org/2000/svg">
<path d="M8.53125 0.3125C8.0091 0.3125 7.50835 0.519921 7.13913 0.889134C6.76992 1.25835 6.5625 1.75911 6.5625 2.28125V2.9375H1.96875C1.44661 2.9375 0.945846 3.14492 0.576634 3.51413C0.207421 3.88335 0 4.38411 0 4.90625L0 15.4062C0 15.9284 0.207421 16.4292 0.576634 16.7984C0.945846 17.1676 1.44661 17.375 1.96875 17.375H19.0312C19.5534 17.375 20.0542 17.1676 20.4234 16.7984C20.7926 16.4292 21 15.9284 21 15.4062V4.90625C21 4.38411 20.7926 3.88335 20.4234 3.51413C20.0542 3.14492 19.5534 2.9375 19.0312 2.9375H14.4375V2.28125C14.4375 1.75911 14.2301 1.25835 13.8609 0.889134C13.4917 0.519921 12.9909 0.3125 12.4688 0.3125H8.53125ZM8.53125 1.625H12.4688C12.6428 1.625 12.8097 1.69414 12.9328 1.81721C13.0559 1.94028 13.125 2.1072 13.125 2.28125V2.9375H7.875V2.28125C7.875 2.1072 7.94414 1.94028 8.06721 1.81721C8.19028 1.69414 8.3572 1.625 8.53125 1.625ZM11.0066 10.6996L19.6875 8.38569V15.4062C19.6875 15.5803 19.6184 15.7472 19.4953 15.8703C19.3722 15.9934 19.2053 16.0625 19.0312 16.0625H1.96875C1.7947 16.0625 1.62778 15.9934 1.50471 15.8703C1.38164 15.7472 1.3125 15.5803 1.3125 15.4062V8.38438L9.99337 10.6996C10.3253 10.788 10.6747 10.788 11.0066 10.6996ZM1.96875 4.25H19.0312C19.2053 4.25 19.3722 4.31914 19.4953 4.44221C19.6184 4.56528 19.6875 4.7322 19.6875 4.90625V7.02725L10.6693 9.43175C10.5584 9.46137 10.4416 9.46137 10.3307 9.43175L1.3125 7.02725V4.90625C1.3125 4.7322 1.38164 4.56528 1.50471 4.44221C1.62778 4.31914 1.7947 4.25 1.96875 4.25Z" fill="black"/>
</svg>
