<svg width="243" height="159" viewBox="0 0 243 159" fill="none" xmlns="http://www.w3.org/2000/svg">
<path fill-rule="evenodd" clip-rule="evenodd" d="M160.898 1.35304C160.777 1.39343 160.616 1.55463 160.576 1.71572C160.456 1.9574 160.335 2.23935 160.376 2.52112C160.417 3.00422 160.256 3.40699 159.974 3.72936C159.613 4.17259 159.492 4.77663 159.01 5.05893C158.205 5.58313 157.884 6.38868 157.442 7.15408C157.241 7.51663 157.161 7.87905 157.161 8.28167C157.203 9.61022 156.963 10.9391 156.642 12.2277C156.602 12.3888 156.642 12.5498 156.683 12.7108C156.763 12.9121 156.884 13.1132 156.965 13.3145C157.046 13.4754 156.965 13.6366 156.764 13.677C156.523 13.7578 156.241 13.8386 156 13.9596C155.839 14.0806 155.597 14.2821 155.597 14.4431C155.558 15.2082 155.116 15.7722 154.835 16.4167C154.634 16.9403 154.473 17.4638 154.434 18.0275C154.394 18.5107 154.515 18.9132 154.958 19.1543C154.998 19.1945 155.039 19.2348 155.039 19.275C155.039 19.3958 154.958 19.4361 154.797 19.396C154.677 19.3559 154.596 19.356 154.475 19.3158C154.032 19.1955 153.791 19.4776 153.671 19.7595C153.51 20.1623 153.39 20.565 153.269 21.008C153.35 21.0079 153.471 21.0481 153.551 21.048C153.551 21.048 153.551 21.048 153.551 21.0077L153.591 20.9674L153.551 21.048L153.511 21.048C153.431 21.5312 153.472 21.9741 153.834 22.3361C153.553 22.4571 153.553 22.6987 153.513 22.9805C153.15 22.6186 152.989 22.1759 152.867 21.6929C152.465 21.5725 152.022 21.4521 151.619 21.372C151.337 21.332 151.056 21.3323 150.814 21.5339C150.573 21.7354 150.251 21.8565 150.01 22.0983C149.527 22.5417 148.924 22.8644 148.28 22.9858C147.958 23.0264 147.636 23.1878 147.394 23.4296C146.51 24.3162 145.545 25.2029 145.304 26.572C145.264 26.7331 145.184 26.8942 145.104 27.0151C144.822 27.579 144.742 28.183 144.783 28.7869C144.784 29.3908 144.785 29.9947 144.785 30.5987C144.785 30.7597 144.705 30.9208 144.625 31.0819C144.303 31.6459 143.78 32.0893 143.62 32.7739C143.62 32.8544 143.459 32.9351 143.379 32.9755C143.097 33.0563 142.856 33.1773 142.654 33.3788C142.293 33.7415 141.931 34.064 141.609 34.4669C141.408 34.7087 141.247 35.0309 141.127 35.3531C141.046 35.5948 141.047 35.9168 141.007 36.1584C140.967 36.3195 140.886 36.4806 140.685 36.4809C140.162 36.4411 139.88 36.7232 139.679 37.1663C139.519 37.5691 139.318 37.9719 139.117 38.3747C139.037 38.4956 138.916 38.697 138.795 38.6971C138.594 38.7376 138.594 38.5363 138.513 38.3753C138.513 38.3351 138.473 38.2546 138.473 38.2143C138.432 38.0936 138.312 38.0534 138.231 38.0938C138.191 38.1341 138.151 38.1744 138.151 38.2146C137.99 38.6979 138.071 39.2212 138.072 39.7044C138.072 39.9862 137.992 40.2278 137.75 40.4294C137.67 40.51 137.71 40.671 137.831 40.7111C137.992 40.7915 138.194 40.7913 138.274 40.8717C138.717 41.3544 139.081 42.1995 138.598 42.8442C138.317 43.2471 138.277 43.6497 138.358 44.0925C138.399 44.5756 138.439 45.0989 138.44 45.5821C138.44 45.8236 138.32 45.9848 138.078 46.0656C138.038 46.0656 137.957 46.1059 137.917 46.106C137.555 46.1869 137.314 46.3884 137.234 46.7508C137.193 46.9522 137.153 47.1938 137.113 47.3951C137.074 47.838 136.832 48.0799 136.43 48.201C136.269 48.2415 136.148 48.3624 136.148 48.5637C136.108 48.7248 136.31 49.0064 136.471 49.0867C136.552 49.1269 136.672 49.1671 136.793 49.2072C137.196 49.2471 137.397 49.4482 137.478 49.8104C137.559 50.0922 137.68 50.3336 137.801 50.575C137.882 50.736 137.801 50.8569 137.6 50.9779C137.439 51.0585 137.318 51.1392 137.157 51.0186C136.916 50.7772 136.714 50.5359 136.472 50.3348C136.351 50.2142 135.989 50.2951 135.909 50.4964C135.829 50.6576 135.788 50.8186 135.829 50.9796C135.91 51.3822 136.071 51.7041 136.353 51.9856C136.716 52.3476 136.998 52.7499 137.119 53.2329C137.241 53.7562 137.241 54.3199 137.644 54.7623C137.684 54.8026 137.644 54.9636 137.644 55.0844C137.605 55.4468 137.766 55.7285 138.048 55.9697C138.37 56.2512 138.733 56.573 139.176 56.6128C139.578 56.6526 139.9 56.8134 140.102 57.1755C140.304 57.4974 140.586 57.7789 140.868 58.0605C140.989 58.1811 141.23 58.2211 141.432 58.2612C141.432 58.2612 141.432 58.2612 141.432 58.2209L141.512 58.2208L141.472 58.2612L141.432 58.2612C141.391 58.3418 141.392 58.4625 141.311 58.5431C141.07 58.8252 140.788 59.1073 140.547 59.3894C140.185 59.7521 139.984 60.1952 139.864 60.6784C139.704 61.363 139.704 62.0072 140.067 62.6107C140.188 62.8119 140.229 63.0132 140.35 63.2144C140.632 63.6569 140.793 64.0997 140.472 64.6234C140.392 65.5494 139.789 66.1137 139.105 66.5975C138.703 66.8798 138.26 67.1218 137.858 67.404C137.737 67.4846 137.536 67.5251 137.375 67.5253C136.812 67.5258 136.288 67.5264 135.805 67.1645C135.644 67.0439 135.402 66.9636 135.201 66.9638C134.637 66.9644 134.114 66.8039 133.59 66.6434C133.067 66.4828 132.503 66.5237 131.94 66.5242C131.859 66.5243 131.739 66.605 131.698 66.6855C131.578 66.8869 131.538 67.0883 131.458 67.2897L131.498 67.2494L131.538 67.3299L131.458 67.2897C131.136 67.6523 130.895 68.0552 130.855 68.5786C130.855 69.0618 130.775 69.5852 130.655 70.0685C130.535 70.6323 130.817 71.1554 130.778 71.7191C130.778 72.1619 130.859 72.6047 130.859 73.0476C130.86 73.3294 130.78 73.6113 130.74 73.8529C130.699 73.9737 130.579 74.0544 130.498 73.9739C130.015 73.451 129.411 73.2503 128.686 73.2913C128.364 73.3319 128.042 73.2517 127.679 73.1716C127.518 73.1315 127.357 73.0511 127.357 72.8498C127.357 72.4472 127.115 72.2461 126.753 72.2062C126.39 72.1261 125.988 72.046 125.625 72.0463C125.102 72.0871 124.659 71.9265 124.256 71.5646C124.014 71.3635 123.732 71.1625 123.491 70.9615C123.37 70.8811 123.169 70.841 123.048 70.7606C122.766 70.6804 122.323 70.9626 122.324 71.2445C122.324 71.8886 122.204 72.5732 122.487 73.2171C122.729 73.7402 122.769 74.2636 122.77 74.8272C122.771 75.3103 123.053 75.6321 123.496 75.833C123.737 75.9535 124.019 76.0338 124.261 76.1141C125.066 76.3145 125.831 76.6359 126.395 77.2795C127.04 77.4801 127.04 77.8827 126.839 78.4466C126.759 78.6882 126.8 79.0103 126.881 79.2518C127.002 79.775 127.244 80.2982 127.365 80.8214C127.446 81.2642 127.487 81.707 127.085 82.0295C126.763 82.2714 126.602 82.6339 126.482 82.9964C126.321 83.4394 125.999 83.7216 125.597 83.9233C125.034 84.1654 124.511 84.4478 124.028 84.8509C123.827 85.0524 123.545 85.1332 123.264 85.1737C122.781 85.2548 122.298 85.376 121.815 85.4168C121.493 85.4574 121.171 85.4979 120.808 85.4983C119.641 85.419 118.473 85.2994 117.346 85.0589C117.145 85.0189 116.903 84.9386 116.742 84.818C116.299 84.4158 115.775 84.3358 115.212 84.4169C114.407 84.4983 113.682 84.3379 112.917 84.0569C112.273 83.816 111.668 83.3737 111.547 82.7297C111.385 81.9246 111.103 81.2405 110.579 80.6773C110.176 80.2349 110.135 79.6713 109.933 79.1883C109.772 78.7859 109.852 78.3027 110.012 77.8999C110.133 77.5777 110.213 77.2555 110.052 76.9336C109.89 76.5714 109.97 76.2493 110.252 76.0477C110.896 75.6444 110.895 75.0405 110.774 74.4367C110.733 74.1147 110.531 73.8331 110.41 73.5513C110.088 73.4712 109.806 73.3507 109.484 73.3107C109.122 73.2708 109.001 73.0696 108.92 72.7879C108.84 72.5867 108.839 72.3451 108.799 72.1438C108.677 71.379 108.878 70.6139 108.837 69.8087C108.796 68.923 108.996 68.1578 109.68 67.5532C109.921 67.3517 109.881 67.0699 109.76 66.7882C109.679 66.587 109.558 66.3858 109.517 66.1845C109.437 65.943 109.517 65.7417 109.678 65.5804C110.08 65.2177 110.522 64.8952 110.965 64.5324C111.206 64.3308 111.448 64.3306 111.73 64.4108C111.891 64.4509 112.052 64.491 112.213 64.5714C112.535 64.7321 112.857 64.7318 113.139 64.4899C114.064 64.2474 114.869 63.7232 115.714 63.4003C116.116 63.2388 116.438 62.9164 116.76 62.6343C117.082 62.3924 117 61.8288 116.678 61.6278C115.993 61.2259 115.269 60.9851 114.504 60.9053C114.383 60.9054 114.262 60.9056 114.182 60.9057C113.779 61.0268 113.337 61.2286 112.934 61.3095C112.491 61.3905 112.049 61.3909 111.646 61.4719C111.606 61.4719 111.525 61.5122 111.485 61.5123C110.198 62.037 108.869 61.9578 107.541 61.8384C107.339 61.7983 107.098 61.7583 106.936 61.5974C106.292 61.0344 105.567 60.4715 105.324 59.5457C105.284 59.425 105.243 59.3445 105.203 59.2238C105.082 58.9018 104.88 58.6604 104.639 58.4191C104.437 58.218 104.196 58.0975 103.994 57.8964C103.833 57.7355 103.631 57.5747 103.591 57.3734C103.47 56.9709 103.228 56.6893 102.986 56.4077C102.543 55.9653 102.22 55.4423 102.099 54.8385C102.058 54.5567 101.817 54.3556 101.495 54.356C101.293 54.3562 101.253 54.1951 101.132 54.0745C101.011 53.8733 100.89 53.7124 100.729 53.5515C100.608 53.4309 100.447 53.3505 100.286 53.4312C100.045 53.5925 99.8436 53.7134 99.5214 53.5527C99.1186 53.3518 98.6758 53.2718 98.2735 53.554C98.1528 53.6346 97.9516 53.6751 97.7905 53.6753C97.3075 53.6757 96.8243 53.5957 96.301 53.556C96.2607 53.556 96.2204 53.4755 96.2204 53.4353C96.2203 53.395 96.2605 53.3145 96.2604 53.2742C96.4615 53.0324 96.7433 53.1127 97.0251 53.0721C97.1056 53.072 97.186 52.9512 97.2664 52.8706C97.2664 52.8706 97.226 52.7498 97.1857 52.7096C96.7829 52.4282 96.38 52.1065 95.9772 51.8654C95.8161 51.7447 95.5746 51.745 95.333 51.705C95.1719 51.6649 95.011 51.7053 94.8499 51.7054C94.7292 51.7056 94.6486 51.6251 94.6484 51.4641C94.6481 51.142 94.4869 50.9409 94.2854 50.7398C93.8018 50.2571 93.2379 49.8953 92.5535 49.8155C91.9496 49.7356 91.8285 49.3734 91.828 48.8902C91.7874 48.5682 91.7468 48.2462 91.666 47.9241C91.6255 47.7631 91.5449 47.6424 91.424 47.4815C91.3837 47.4413 91.3434 47.4011 91.3031 47.4011C91.2629 47.4012 91.1824 47.4415 91.1825 47.4818C91.1423 47.5623 91.1022 47.6831 91.1023 47.8039C91.1024 47.965 91.0623 48.0455 90.9414 47.9651C90.9012 47.9652 90.9011 47.8847 90.901 47.8041C90.901 47.7639 90.9009 47.6833 90.9008 47.6431C91.0206 46.6767 90.5769 45.7914 90.576 44.8654C90.5759 44.7446 90.4147 44.5838 90.3341 44.4631C90.0519 44.101 89.9312 44.1414 89.6498 44.5443C89.4488 44.8666 89.0867 45.028 88.8451 44.9477C88.4827 44.8273 88.0801 44.7472 87.7579 44.5864C87.1537 44.3052 86.63 43.8629 86.3878 43.219C86.2264 42.8568 86.1053 42.4946 85.8232 42.213C85.6217 42.0119 85.5409 41.7302 85.5407 41.4483C85.6204 40.6833 85.2575 40.0395 85.136 39.3552C85.0955 39.1137 84.8539 39.0736 84.6526 38.9933C84.5318 38.9532 84.3706 38.7923 84.3302 38.6313C84.1686 38.1081 84.0875 37.5445 83.9662 37.0212C83.9662 36.981 84.0064 36.9004 84.0064 36.9004C84.0869 36.9406 84.248 36.9404 84.2882 36.9807C84.4092 37.1818 84.4497 37.3831 84.5304 37.5843C84.7724 38.0269 85.0948 38.389 85.578 38.5898C85.7794 38.6701 86.021 38.7101 86.2222 38.6697C86.5441 38.5888 86.8257 38.3872 86.9865 38.1052C87.0266 38.0247 87.0667 37.8636 87.0264 37.7831C86.744 37.1392 86.3408 36.4955 85.7767 36.0532C85.4142 35.812 85.2529 35.49 85.3732 35.0873C85.0906 34.2421 84.8482 33.3969 84.5656 32.5517C84.4848 32.3102 84.404 32.0285 84.283 31.787C83.6791 31.6669 83.8797 31.0627 83.6378 30.7006C83.5572 30.5799 83.5167 30.3787 83.4361 30.258C83.3958 30.1775 83.3151 30.0568 83.2345 29.9763C83.1539 29.8556 82.872 29.7754 82.7917 29.8963C82.47 30.2589 82.1885 30.541 81.665 30.3403C81.6247 30.3403 81.5442 30.3807 81.504 30.3807C81.3833 30.4211 81.2628 30.703 81.3434 30.7835C81.827 31.3466 82.391 31.7487 82.9952 32.1507C83.2369 32.3115 83.2773 32.4322 83.2373 32.6738C83.1972 32.8349 83.1571 32.996 83.1572 33.157C83.2781 33.2374 83.3184 33.3179 83.3186 33.4387C83.2784 33.5595 83.198 33.6804 83.1579 33.8012C83.1178 33.9623 83.118 34.1233 83.0779 34.2844C83.038 34.6871 82.7966 34.8081 82.4746 34.8487C82.435 35.4526 82.073 35.7751 81.4693 35.8562C80.9058 35.9373 80.3825 35.9378 79.8992 35.6967C79.6978 35.5762 79.4966 35.7374 79.4567 36.0193C79.4165 36.1401 79.4569 36.2206 79.4167 36.3414C79.4168 36.3817 79.3766 36.422 79.3364 36.5025C79.2961 36.422 79.2959 36.3013 79.2556 36.2208C79.0942 35.8183 78.8925 35.4159 78.6104 35.0941C78.4492 34.9333 78.0868 34.8128 77.8454 34.9339C77.6442 35.0548 77.443 35.1356 77.3225 35.337C77.0009 35.7802 76.8002 36.344 76.9618 36.9075C77.3256 38.3968 77.6491 39.8861 78.536 41.1736C78.5763 41.1735 78.5763 41.1735 78.6165 41.1735C78.6166 41.2138 78.6166 41.2138 78.6166 41.254C78.818 41.4149 78.9793 41.616 79.1807 41.7768C79.221 41.7768 79.2209 41.7768 79.2612 41.7768C79.342 42.0182 79.4227 42.2597 79.5437 42.5012C79.6646 42.6218 79.7452 42.7425 79.8259 42.9035L79.9065 42.9437L79.7857 42.9035C79.705 42.7828 79.5841 42.6622 79.5035 42.5415C79.4228 42.3 79.342 42.0585 79.2612 41.817L79.2209 41.7768C78.7781 41.6967 78.7378 41.6565 78.6569 41.254L78.6166 41.2138C78.6166 41.2138 78.6165 41.1735 78.5763 41.1735C78.2945 41.2141 78.0931 41.0533 77.9319 40.8521C77.4483 40.3292 77.0853 39.6854 76.8834 39.0012C76.7621 38.5584 76.5605 38.156 76.1175 37.9954C76.0369 37.9552 75.9161 37.8748 75.8355 37.7944C75.5534 37.4726 75.231 37.1508 74.9891 36.7887C74.7875 36.4266 74.9884 36.0238 75.0282 35.6614C75.067 34.1315 75.2667 32.6013 75.4664 31.0712C75.5462 30.3867 75.2638 29.7831 75.3839 29.0985C75.424 28.9374 75.3433 28.7765 75.3029 28.6155C75.2625 28.4545 75.1818 28.2935 75.1012 28.1728C74.8592 27.7302 74.5771 27.3681 74.1339 27.0465C73.8117 26.8052 73.6101 26.4834 73.5694 26.0808C73.5289 25.799 73.4481 25.5173 73.4478 25.2757C73.4068 24.4705 73.0036 23.8268 72.5198 23.1831C72.278 22.8612 71.9155 22.6603 71.5131 22.8218C71.2314 22.9428 70.9899 22.9833 70.7483 22.8628C70.5469 22.7825 70.3455 22.6619 70.1443 22.6621C69.9832 22.622 69.782 22.6624 69.6613 22.7431C69.2187 22.9851 68.8971 23.3478 68.9781 23.9114L69.0185 24.0321L68.9379 23.9516C68.9379 23.9516 68.9379 23.9516 68.9379 23.9114C68.7769 23.9518 68.6159 23.952 68.4549 23.9924C68.1732 24.0732 67.9721 24.2345 67.9322 24.5566C67.8921 24.7177 67.8922 24.8787 67.8924 25.0398C67.8924 25.08 67.8523 25.1606 67.8523 25.2008C67.812 25.1204 67.7314 25.0802 67.6911 24.9997C67.6104 24.8387 67.6102 24.6777 67.5296 24.557C67.4086 24.3558 67.1671 24.3158 66.966 24.477C66.7246 24.6383 66.5235 24.7996 66.5641 25.1216C66.5642 25.2424 66.6046 25.4034 66.5241 25.4437C66.0012 25.8469 65.8408 26.4509 65.5998 26.9746C65.5596 27.0551 65.439 27.1761 65.3585 27.1761C64.7548 27.2975 64.4332 27.7407 64.0713 28.1437C63.8702 28.3452 63.6691 28.5065 63.4277 28.6677C63.2266 28.829 62.9851 28.8292 62.8239 28.6683C62.6224 28.4672 62.421 28.2661 62.2195 28.1053C62.0181 27.9445 61.8168 27.9044 61.6157 28.0657C61.2536 28.3076 60.8512 28.469 60.3681 28.389C60.2473 28.3489 60.0462 28.5101 59.9658 28.631C59.7647 28.8325 59.4425 28.712 59.2415 28.994C59.121 29.1955 58.839 29.0347 58.6378 29.0752C58.3963 29.1559 58.1145 29.116 57.8328 29.1565C57.5108 29.1971 57.1888 29.2779 56.8669 29.399C56.1426 29.6816 55.3779 29.8032 54.6131 29.8845C54.4119 29.9249 54.1703 29.9252 53.9692 30.0059C53.8887 30.0462 53.8485 30.167 53.8084 30.2476C53.8084 30.2879 53.8085 30.3684 53.8488 30.4086C54.4933 30.8106 55.0574 31.3334 55.7823 31.6548C56.5072 31.9761 57.1517 32.3781 57.4343 33.183C57.515 33.3842 57.7164 33.5048 57.8374 33.706C57.9986 33.9474 58.1196 34.1888 58.2004 34.4303C58.3214 34.712 58.2009 34.9537 57.9999 35.1955C57.8793 35.3969 57.6782 35.5179 57.4769 35.5583C57.1952 35.6391 57.0344 35.8406 56.8737 36.1226C56.6728 36.4851 56.3508 36.5257 56.0287 36.4858C55.5053 36.4461 54.9817 36.0842 54.4183 36.3264C54.2976 36.3668 54.0962 36.2462 53.9754 36.1658C53.4518 35.965 52.9284 35.8045 52.4852 35.4829C52.3644 35.4024 52.0827 35.4833 52.0829 35.6443C52.0028 36.1275 51.5201 36.4501 51.5206 36.9735C51.5208 37.1748 51.36 37.3762 51.2394 37.5777C51.1591 37.7388 50.9981 37.7792 50.8371 37.7794C50.6761 37.7795 50.515 37.7394 50.3541 37.8604C50.0324 38.1425 49.6703 38.3845 49.2276 38.5057C48.9862 38.5865 48.7449 38.788 48.5437 38.9493C48.1415 39.2315 47.9405 39.5538 48.1423 40.077C48.223 40.2782 48.2635 40.5197 48.2235 40.7211C48.0631 41.3654 48.1041 42.0498 47.6618 42.6139C47.501 42.8153 47.4208 43.0973 47.3406 43.3792C47.1399 44.0235 47.5432 44.7478 48.1875 44.9887C48.5903 45.1494 48.9526 45.149 49.3146 44.9473C49.556 44.7861 49.8378 44.7455 50.0795 44.9466C50.442 45.1878 50.7644 45.5498 51.1671 45.7104C51.6102 45.9113 52.0928 45.4679 52.6162 45.5882C52.8175 45.6282 53.059 45.5877 53.2602 45.507C53.6626 45.3858 53.8641 45.5869 54.0657 45.9088C54.1464 46.0698 54.2271 46.271 54.3479 46.3111C55.0326 46.6325 55.4357 47.236 55.9998 47.7186C56.2818 47.9599 56.6039 47.9595 56.9256 47.7177C57.167 47.5564 57.3278 47.3549 57.5692 47.1936C57.7301 47.0727 57.9715 46.9516 58.1727 46.9112C58.7764 46.7898 59.3802 46.7489 59.9839 46.6275C60.6681 46.506 61.2724 46.9483 61.9565 46.7463C61.9968 46.706 62.1579 46.8266 62.1982 46.9071C62.3595 47.1083 62.4805 47.39 62.682 47.5911C63.367 48.2748 63.8106 49.0796 64.1738 49.9649C64.3353 50.3674 64.4967 50.7698 64.6581 51.2125C64.7792 51.4942 65.0209 51.655 65.3026 51.6145C65.9869 51.5735 66.631 51.5326 67.2752 51.6528C67.7181 51.7328 68.1609 51.7727 68.6037 51.8125C69.0466 51.812 69.4893 51.7713 69.8918 51.7306C70.0528 51.7305 70.2139 51.7303 70.375 51.8107C70.6569 51.9312 70.9791 52.1321 71.2611 52.2929C71.3416 52.3331 71.4223 52.4941 71.3821 52.5344C71.302 52.937 71.6242 53.138 71.7855 53.3794C71.9064 53.5403 71.8262 53.8625 71.6653 53.9432C71.5043 54.0239 71.3434 54.0643 71.2227 54.145C70.9813 54.266 70.6593 54.3066 70.4985 54.508C70.016 55.0722 69.2915 55.2339 68.6881 55.6372C68.487 55.7581 68.2857 55.7181 68.044 55.6378C67.2788 55.2762 66.5539 54.9146 65.6683 54.9558C65.4268 54.956 65.1448 54.7953 64.863 54.715C64.5811 54.6348 64.3395 54.5545 64.0576 54.4743C63.9368 54.4341 63.6552 54.5955 63.6553 54.676C63.5756 55.5618 63.2142 56.4076 63.2554 57.2933C63.2556 57.5349 63.1753 57.7363 62.9741 57.8573C62.411 58.2604 62.0089 58.744 61.7278 59.3884C61.4466 59.9524 61.0445 60.3956 60.4812 60.678C59.8777 61.0007 59.4354 61.4843 59.0736 62.0483C58.7521 62.572 58.4709 63.0957 58.1896 63.6194C58.0288 63.8611 57.9889 64.143 58.0697 64.4247C58.1909 64.8675 58.3926 65.3504 58.3126 65.8336C58.3126 65.8336 58.3529 65.8336 58.3529 65.8738L58.3932 65.914L58.3127 65.9141L58.3126 65.8739C57.9098 65.5924 57.5071 65.4318 56.9838 65.4726C56.3801 65.5537 55.7762 65.5141 55.1724 65.5147C54.9711 65.5149 54.7296 65.5554 54.5284 65.5959C54.4479 65.6362 54.3272 65.7168 54.3274 65.8376C54.2873 66.039 54.2876 66.2805 54.2475 66.4819C54.2477 66.7234 54.1271 66.8846 53.8857 66.9654C53.7247 67.0058 53.5637 67.0462 53.4027 67.0061C53.0805 66.9259 52.7986 66.7652 52.4765 66.685C51.1075 66.4045 49.8591 65.8421 48.9321 64.7158C48.7305 64.4744 48.4486 64.3137 48.1666 64.1126C47.3609 63.5095 46.515 62.987 46.1919 61.9405C45.7889 61.4981 45.4663 60.975 44.8221 60.8146C44.661 60.7745 44.5402 60.6539 44.5802 60.4525C44.6203 60.2512 44.6603 60.0096 44.7003 59.8082C44.74 59.2848 44.337 58.8423 43.8137 58.8026C43.5722 58.8028 43.2904 58.8434 43.0489 58.8436L43.0489 58.8839C43.0087 58.9242 43.0087 58.9242 42.9685 58.9645C42.9685 58.9242 42.9684 58.884 43.0086 58.8437L43.0489 58.8436C43.0884 58.0786 42.9267 57.4749 42.1213 57.1536C41.9602 57.0733 41.9198 56.9123 41.9599 56.7512C42.0402 56.5095 42.1606 56.2276 42.2812 55.9859C42.3614 55.704 42.3611 55.4222 42.1596 55.2211C41.3939 54.3764 40.588 53.5317 39.782 52.7273C39.7015 52.6469 39.5807 52.647 39.4599 52.6471C39.2184 52.6473 39.0573 52.6072 38.8961 52.4061C38.5737 52.0038 38.2915 51.6418 37.9691 51.2797C37.8482 51.1591 37.7676 51.0786 37.6468 50.958C37.6468 50.958 37.6467 50.958 37.6065 50.9178C37.5259 50.8373 37.4855 50.7568 37.405 50.7167C37.002 50.3144 37.002 50.2742 36.4387 50.5968C36.3985 50.6371 36.3583 50.6372 36.2778 50.6775C36.1571 50.7179 36.0363 50.6778 36.0361 50.557C35.9551 50.0337 35.9546 49.5506 36.5582 49.3486C36.5985 49.3486 36.6387 49.268 36.6789 49.2277C37.0001 48.4222 37.1201 47.6571 36.7167 46.8523C36.4746 46.2889 36.1521 45.7658 35.7088 45.3234C35.5476 45.1625 35.3864 44.9614 35.346 44.8004C35.265 44.3576 34.9026 44.1969 34.5803 43.996C34.3386 43.8352 34.0568 43.7952 33.7751 43.876C33.5739 43.9567 33.3324 43.9972 33.1312 44.0779C32.8094 44.2393 32.4873 44.2396 32.1652 44.1192C31.843 44.039 31.521 43.999 31.1988 43.9188L31.1989 43.9591L31.1587 44.0397L31.1988 43.9188C31.2389 43.7175 31.2789 43.5162 31.2787 43.3149C31.2379 42.711 30.9961 42.4697 30.352 42.43C30.1104 42.4303 29.9494 42.3902 29.7479 42.2294C29.4256 41.9478 29.1843 42.1494 28.9027 42.3107C28.7421 42.7538 28.4203 42.9554 27.9372 42.9559C27.5749 42.9562 27.3738 43.1175 27.3742 43.5201C27.3745 43.8422 27.1331 43.9229 26.8916 43.9635C26.9322 44.3258 26.8118 44.648 26.5706 44.9703C26.5706 44.9703 26.5706 44.9703 26.5303 44.9703L26.5303 45.0106L26.5706 44.9703C26.6109 45.091 26.6513 45.1715 26.6514 45.2923C26.6519 45.8157 26.8938 46.1375 27.3769 46.2176C27.8601 46.3379 28.263 46.6595 28.7861 46.498C28.9069 46.4576 28.9874 46.4575 29.068 46.5379C29.2694 46.739 29.4307 46.9402 29.6321 47.101C29.6729 47.6244 30.0756 47.8253 30.4783 47.9859C30.72 48.1065 30.9617 48.227 31.2033 48.3878C31.4047 48.5084 31.4855 48.7096 31.4857 48.9109L31.5259 48.9108C31.5662 48.9511 31.5662 48.9511 31.6065 48.9913C31.5663 48.9913 31.526 48.9914 31.4857 48.9512C31.3248 49.0318 31.0833 49.0723 31.0433 49.3139C31.0032 49.5153 31.2449 49.6761 31.6475 49.7562C31.8891 49.7962 32.0904 49.8363 32.2916 49.7153C32.533 49.6345 32.7344 49.7149 32.8955 49.8355C33.0567 49.9561 33.1777 50.2378 33.0974 50.3989C33.017 50.5198 32.9367 50.7212 32.7757 50.7616C32.4538 50.8827 32.1318 50.9233 31.8098 50.9639C31.1658 51.045 30.6021 50.9248 30.1587 50.4019C29.9975 50.2007 29.7962 50.1607 29.5546 50.1207C28.7897 50.0007 28.1459 50.2831 27.5021 50.6059C27.3814 50.6865 27.3817 50.9281 27.5026 51.0487C27.8652 51.3705 28.2278 51.7324 28.7111 51.893C28.9929 51.9732 29.1944 52.1743 29.3556 52.3755C29.3959 52.4157 29.396 52.456 29.4363 52.5364C29.4364 52.6572 29.356 52.7378 29.2352 52.6977C28.7117 52.5372 28.1882 52.3767 27.6247 52.4175C27.343 52.458 27.3025 52.2165 27.2218 52.0153C27.0604 51.6934 26.7786 51.6936 26.5776 51.9354C26.3766 52.1772 26.1353 52.4592 26.0954 52.7814C26.0554 53.0632 25.9349 53.3049 25.7741 53.5064C25.6937 53.6272 25.6132 53.6676 25.4924 53.5872C25.1701 53.3057 24.8477 52.9839 24.5254 52.7024C24.4448 52.622 24.4446 52.5012 24.4043 52.4207C24.2429 52.0183 24.1623 51.8976 23.8806 51.9784C22.8342 52.221 21.8279 52.3831 20.7809 51.9815C20.6199 51.9414 20.4185 51.9014 20.2979 51.982C19.654 52.184 18.9696 52.1041 18.3661 52.4268C18.1247 52.5479 17.9635 52.4272 17.8425 52.2261C17.5604 51.8237 17.2379 51.4215 16.9155 51.0594C16.7139 50.7778 16.432 50.617 16.0697 50.5771C15.9489 50.5773 15.8683 50.5371 15.7877 50.4567C15.7072 50.3762 15.6265 50.2555 15.6264 50.175C15.7067 49.9333 15.8272 49.6917 15.988 49.4499C16.189 49.1276 16.1081 48.8056 15.9066 48.524C15.7856 48.3228 15.6647 48.1619 15.5035 48.001C14.7781 47.2368 14.0528 46.4726 13.3274 45.7084C13.1662 45.5475 12.9648 45.4269 12.8037 45.3063C12.562 45.1455 12.0388 45.3071 11.9183 45.5487C11.8781 45.589 11.8379 45.6293 11.838 45.7099C11.7984 46.3943 11.4367 46.9583 11.0346 47.4821C10.914 47.6433 10.8338 47.885 10.7937 48.0863C10.7137 48.5695 10.674 49.0929 10.7952 49.576C10.8357 49.737 10.9163 49.8979 11.0372 50.0186C11.3192 50.2599 11.6817 50.4205 11.8029 50.823C12.1251 51.024 12.4474 51.225 12.8099 51.4259C13.3335 51.7072 13.8571 52.0288 14.4209 52.2698C14.7029 52.4305 15.025 52.551 15.3471 52.5507C16.1119 52.5499 16.7161 52.9116 17.4007 53.1525C17.5617 53.1926 17.6826 53.3133 17.7632 53.434C17.9648 53.7558 18.2067 54.0777 18.4486 54.3995C18.6501 54.6811 18.8916 54.6406 19.1734 54.6001L19.1733 54.5598C19.2136 54.5598 19.2136 54.5598 19.2538 54.5598C19.2538 54.5195 19.294 54.5195 19.294 54.4792C19.3343 54.5194 19.3343 54.5194 19.2538 54.5598L19.2136 54.6001C19.2136 54.6001 19.2136 54.6001 19.1734 54.6001C19.2541 54.8416 19.2544 55.1234 19.4156 55.3245C19.8994 56.0487 20.5842 56.4909 21.4297 56.6108C21.7517 56.6508 22.0738 56.6907 22.2754 56.9723C22.356 57.0528 22.4366 57.1332 22.5172 57.2137C22.8395 57.4952 23.1616 57.5754 23.6044 57.5346C24.0069 57.494 24.3691 57.4131 24.6909 57.1712C24.8518 57.0503 25.053 57.0098 25.214 56.9291C25.2541 56.768 25.2942 56.6472 25.3343 56.5264C25.5353 56.2041 25.7362 55.8818 25.9775 55.5997C26.0177 55.5594 26.0579 55.5191 26.0982 55.5191C26.2189 55.519 26.219 55.5995 26.2594 55.7202C26.2998 55.8812 26.3 56.0423 26.4208 56.1629C26.7029 56.4042 27.0252 56.6455 27.3071 56.8465C27.4683 56.9671 27.7097 56.8863 27.8303 56.6447C27.8704 56.5641 27.8703 56.4433 27.9105 56.3627L27.8702 56.3628L27.8298 56.242L27.9104 56.3225L27.9105 56.3627C28.1117 56.3223 28.3532 56.322 28.5144 56.4829C28.7965 56.7645 29.0383 57.046 29.2801 57.3276C29.5622 57.6494 29.8042 58.0518 29.8046 58.4947C29.8052 59.0986 30.2483 59.3397 30.7315 59.5002C31.0939 59.5804 31.4965 59.6203 31.8588 59.7004C31.9394 59.7003 32.0199 59.7808 32.0603 59.8613C32.0201 59.9016 31.9799 59.9418 31.9396 59.9821C31.7385 60.1031 31.5776 60.2241 31.3764 60.3451C31.0546 60.5467 30.9338 60.5468 30.6518 60.3055C30.249 60.0241 29.8461 59.7024 29.4433 59.421C29.3224 59.3406 29.0407 59.4214 29.0409 59.5825C29.0012 60.1462 28.6391 60.3076 28.156 60.3483C28.1158 60.3886 28.0756 60.4289 27.9952 60.5095C28.0354 60.4692 28.0756 60.4289 28.156 60.3483L28.1962 60.308L28.156 60.3483C28.1961 60.147 28.2764 59.9053 28.3164 59.704C28.3967 59.5026 28.4367 59.261 28.3158 59.0598C28.1544 58.6976 27.993 58.3354 27.8316 58.0135C27.7913 57.933 27.6705 57.8526 27.5497 57.8528C27.1471 57.8532 26.7849 57.8938 26.3823 57.8942C26.1005 57.8945 26.0201 57.9348 25.9794 57.5323C25.8984 57.0089 25.5361 57.0093 25.1737 56.9694C25.1738 57.0499 25.1739 57.1305 25.174 57.2513C25.215 57.9759 24.9741 58.5398 24.2095 58.7821C24.129 58.8225 24.0083 58.9031 23.9278 58.9434C23.8072 59.0241 23.7672 59.306 23.8478 59.3864C24.0493 59.5875 24.2105 59.8289 24.4119 59.9495C25.0162 60.3917 25.4997 60.8744 25.581 61.6393C25.5811 61.7198 25.702 61.8404 25.7423 61.9209C25.7826 61.9611 25.8229 62.0014 25.8632 62.0416C25.9438 62.1623 26.2256 62.162 26.306 62.0411C26.708 61.4771 27.1099 60.8325 27.7939 60.55L27.7537 60.5903L27.7939 60.55C27.8345 60.8318 27.9555 61.0732 27.9558 61.355C27.9561 61.6369 27.9563 61.8784 28.2785 61.9989C28.4798 62.0792 28.6008 62.2804 28.762 62.4413C28.8829 62.5619 29.0037 62.6826 29.1648 62.6824C29.3258 62.6823 29.4868 62.6821 29.6077 62.843C29.7287 63.0442 29.6887 63.2858 29.6084 63.4872C29.5281 63.6886 29.4075 63.89 29.3272 64.0914C29.1666 64.4539 29.0864 64.8163 29.2881 65.2187C29.3688 65.3797 29.3689 65.5407 29.4093 65.7017C29.4498 65.9433 29.4098 66.1446 29.3295 66.346C29.1286 66.7085 28.9679 67.0308 28.6058 67.2325C28.0827 67.4746 27.8818 67.8774 27.7616 68.3606C27.7215 68.562 27.5607 68.7634 27.3192 68.8039C26.7961 68.9655 26.3133 69.2478 25.7094 69.1679C25.5483 69.1278 25.3873 69.1682 25.2263 69.1684C24.8641 69.209 24.4619 69.612 24.5428 69.9743C24.6643 70.7391 24.7859 71.504 24.8269 72.2689C24.8675 72.5909 25.1495 72.8322 25.4717 72.9527C25.673 73.033 25.995 72.9521 26.196 72.7104C26.3167 72.5895 26.3567 72.4284 26.2358 72.2675C26.1955 72.187 26.0746 72.1066 26.0343 71.9858C25.9937 71.6638 25.9531 71.3417 25.9125 71.0197C25.8317 70.6977 25.7106 70.416 25.5895 70.094C25.5895 70.0538 25.6699 69.9329 25.7504 69.8926C25.7504 69.8926 25.8712 69.9327 25.8712 69.9729C25.9923 70.2949 26.0731 70.6169 26.2344 70.8583C26.5166 71.2204 26.678 71.6228 26.7589 72.0656C26.7994 72.2669 26.8801 72.5084 26.9609 72.7096C27.082 73.0316 27.2835 73.2729 27.6459 73.3933C28.1694 73.5538 28.6928 73.6741 29.2565 73.7541C29.4175 73.7539 29.5786 73.8745 29.6592 73.9952C29.7399 74.1159 29.9011 74.3171 29.8609 74.3976C29.7806 74.599 29.5792 74.4784 29.4584 74.398C29.1764 74.2373 28.9349 74.2778 28.6533 74.3988C28.2911 74.5602 27.9693 74.7216 27.6071 74.883C27.3255 75.0443 27.0036 75.1655 26.722 75.3268C26.561 75.4075 26.4003 75.6895 26.4408 75.8907C26.4812 76.092 26.562 76.3335 26.6024 76.5347C26.9664 78.1851 26.6459 79.7153 25.6006 81.0449C25.5202 81.1255 25.2787 81.1661 25.1578 81.0857C24.8356 80.9249 24.6341 80.6836 24.6337 80.3212C24.6336 80.1602 24.6334 79.9991 24.6333 79.8381C24.6326 79.1537 24.27 78.8319 23.5857 78.9534C23.2638 79.0343 22.9419 79.1554 22.6602 79.3167C22.2579 79.5587 21.9363 79.9213 22.0173 80.4044C22.0984 81.0082 21.8573 81.4916 21.4955 81.9348C21.013 82.5392 20.5306 83.1436 20.0481 83.748C19.7265 84.151 19.4048 84.5136 18.8816 84.5947C18.1974 84.7162 17.8758 85.1593 17.5946 85.7635C17.3536 86.2872 17.4346 86.73 17.8777 87.0919C18.0389 87.2125 18.2001 87.4136 18.321 87.5745C18.4017 87.6952 18.4019 87.8966 18.402 88.0576C18.4022 88.2589 18.2011 88.4201 18.0803 88.3397C17.5565 87.8974 16.9123 87.7773 16.2681 87.6974C16.2279 87.6974 16.1877 87.7377 16.1475 87.778C16.1072 87.8183 16.0671 87.8989 16.1073 87.8989C16.188 88.0598 16.2284 88.2208 16.3493 88.3415C16.7523 88.8242 17.1553 89.2667 17.5181 89.7494C17.5585 89.8299 17.5988 89.9507 17.5587 90.0715C17.5185 90.152 17.4381 90.2729 17.3174 90.273C16.8747 90.354 16.4318 90.3142 15.9889 90.2341C15.2239 90.0336 14.459 89.9941 13.6942 90.0351C13.5332 90.0353 13.3722 90.116 13.2112 90.1564C13.171 90.1967 13.1309 90.3578 13.1713 90.4383C13.3325 90.6797 13.6144 90.7599 13.8962 90.7999C14.1781 90.8399 14.4197 90.9201 14.581 91.2018C14.7826 91.5237 14.9842 91.8456 15.1456 92.2077C15.2665 92.4089 15.1863 92.6506 15.0254 92.8118C14.945 92.8924 14.9048 92.9327 14.8243 93.0133C14.8244 93.0535 14.8244 93.0938 14.8245 93.1341C14.905 93.2145 14.9454 93.3352 15.026 93.4157C15.0663 93.4559 15.0664 93.5364 15.0262 93.5767C14.9458 93.6976 14.9055 93.6574 14.8651 93.4964C14.865 93.3756 14.8246 93.2548 14.8245 93.1743C14.7842 93.1341 14.7842 93.1341 14.7842 93.0938L14.8244 93.0535C14.6633 93.0134 14.5022 92.9733 14.3412 92.9332C14.1399 92.8932 13.9789 92.9739 13.9388 93.135C13.8184 93.4974 13.7383 93.9001 13.8997 94.2623C14.2226 95.0672 14.5052 95.9124 14.5464 96.7981C14.5466 97.0799 14.6274 97.3616 14.7887 97.5628C15.1917 98.0455 15.152 98.5689 15.072 99.0924L15.1123 99.1326L15.1928 99.1728L15.072 99.1327L15.072 99.0924C15.0317 99.0522 15.0317 99.0522 14.9914 99.012C14.79 98.8511 14.5887 98.8513 14.3875 98.9723C14.1864 99.1336 14.1865 99.2544 14.3479 99.536C14.4688 99.7372 14.5898 99.8981 14.6302 100.14C14.6709 100.502 14.7518 100.904 14.9132 101.267C15.0746 101.709 15.3165 102.031 15.8399 102.111C16.0412 102.151 16.1219 102.312 16.0415 102.433C15.8807 102.675 15.7199 102.876 15.5591 103.118C15.3179 103.44 15.0364 103.682 14.6339 103.763C14.2717 103.884 13.9096 104.005 13.5474 104.127C13.3059 104.207 13.0646 104.369 12.8232 104.49C12.421 104.852 12.18 105.376 11.8584 105.819C11.4163 106.504 10.9339 107.189 10.0888 107.472C9.9681 107.512 9.88768 107.593 9.80721 107.633C9.60605 107.754 9.48549 107.955 9.48574 108.197C9.48594 108.398 9.44593 108.64 9.44613 108.841C9.44662 109.324 9.28596 109.687 8.96429 110.05C8.56227 110.573 8.11995 111.057 7.87907 111.701C7.75859 111.983 7.51734 112.265 7.27606 112.507C6.99456 112.789 6.71298 112.991 6.35084 113.152C5.98871 113.314 5.7878 113.676 5.86876 114.119C5.9093 114.401 5.99005 114.642 6.07085 114.924C6.11126 115.085 6.03092 115.246 5.86998 115.327C5.46767 115.569 4.94436 115.569 4.50179 115.811C4.46158 115.852 4.30048 115.771 4.21989 115.691C4.099 115.57 3.9379 115.49 3.77696 115.57C3.61602 115.651 3.49538 115.772 3.41499 115.893C3.29447 116.135 3.21424 116.417 3.13398 116.658C3.09389 116.819 3.09405 116.98 3.05396 117.141C3.01394 117.383 2.93352 117.464 2.57118 117.424C2.28935 117.384 2.04782 117.384 1.92734 117.666C1.92738 117.706 1.92743 117.746 1.92747 117.787C1.96788 117.948 2.04856 118.109 2.08897 118.27C2.12927 118.31 2.16961 118.39 2.2099 118.431L2.20994 118.471C2.29045 118.471 2.41126 118.511 2.49181 118.551C2.73346 118.672 2.77388 118.833 2.65336 119.074C2.61318 119.155 2.49246 119.195 2.37169 119.195C2.37169 119.195 2.2911 119.115 2.29106 119.075C2.2506 118.873 2.2504 118.672 2.20994 118.471L2.16969 118.471C2.12935 118.39 2.12927 118.31 2.08897 118.27C2.0083 118.109 1.92767 117.988 1.92747 117.787C1.92743 117.746 1.92742 117.746 1.88713 117.706C1.88713 117.706 1.88713 117.706 1.88709 117.666C1.44441 117.787 1.08231 117.989 0.800855 118.311C0.640038 118.513 0.599944 118.674 0.680698 118.915C0.801829 119.277 0.92296 119.64 1.16481 119.962C1.56785 120.444 1.56838 120.968 1.40793 121.531C1.32775 121.854 1.20731 122.176 1.12712 122.498C0.96667 123.062 1.20861 123.464 1.57127 123.826C1.69215 123.947 1.85322 123.987 2.01432 124.067C2.1352 124.188 2.29634 124.309 2.29647 124.429C2.37742 124.872 2.57911 125.275 2.41853 125.718C2.25816 126.362 2.41979 126.966 2.78257 127.448C3.42763 128.414 3.952 129.46 4.75796 130.305C4.87884 130.426 4.99973 130.546 5.0804 130.707C5.68532 131.794 6.24999 132.88 5.56692 134.129C5.5267 134.169 5.52674 134.209 5.48657 134.29C5.28582 134.814 5.36658 135.055 5.80979 135.457C6.09182 135.699 6.45432 135.899 6.69613 136.181C7.05887 136.624 7.46154 136.744 7.98466 136.542C8.34679 136.381 8.7493 136.34 9.11147 136.219C10.1577 135.855 11.164 135.734 12.1709 136.296C12.3723 136.417 12.7345 136.255 12.8953 136.054C13.0963 135.772 13.2168 135.49 13.3775 135.208C13.78 135.127 13.941 135.127 14.0215 135.127C14.0215 135.127 14.0618 135.207 14.0619 135.288C14.1023 135.449 14.1428 135.65 14.3441 135.65C14.7869 135.69 15.2297 135.73 15.6726 135.729C15.7531 135.729 15.8335 135.608 15.8736 135.487C15.9137 135.367 15.9136 135.206 15.9134 135.085L15.8732 135.085C15.8732 135.085 15.8731 135.045 15.9134 135.044C15.8329 135.045 15.7121 135.004 15.6316 135.004C15.6316 135.004 15.6316 135.004 15.6316 135.045L15.5512 135.125L15.5913 135.045C15.4701 134.562 15.5502 134.119 15.7107 133.676C15.7509 133.555 15.9923 133.474 16.1132 133.555C16.1937 133.595 16.2743 133.715 16.2744 133.796C16.2347 134.279 16.0338 134.682 15.8732 135.085L15.9134 135.085C15.9135 135.125 15.9135 135.125 15.9135 135.165C16.0745 135.125 16.316 135.125 16.3565 135.366C16.3971 135.688 16.4779 136.01 16.7198 136.292C16.9616 136.573 16.9217 136.936 16.7609 137.218C16.6003 137.58 16.3993 137.902 16.1984 138.225C16.0779 138.466 15.8364 138.507 15.635 138.386C15.4336 138.266 15.2724 138.145 15.071 138.025C14.7085 137.783 14.2258 138.146 14.2262 138.509C14.2266 138.951 14.2271 139.394 14.308 139.837C14.3485 140.079 14.4696 140.401 14.6711 140.561C14.9933 140.803 14.9936 141.085 14.9537 141.447C14.9138 141.729 15.0348 141.97 15.0753 142.252C15.1969 143.057 15.761 143.62 16.0033 144.385C16.0841 144.667 16.4465 144.747 16.6879 144.585C17.0499 144.344 17.4119 144.061 17.7337 143.819C17.8544 143.739 17.935 143.779 18.056 144.061C18.0963 144.141 18.1368 144.302 18.2173 144.342C18.781 144.422 19.2241 144.744 19.7476 144.904C19.9489 144.945 20.2306 144.904 20.3916 144.823C20.9548 144.46 21.4373 143.977 21.2756 143.212C21.1541 142.568 21.2341 142.004 21.6361 141.48C21.8774 141.198 21.9173 140.916 21.7157 140.554C21.4333 139.991 21.2315 139.428 20.9894 138.864C20.949 138.743 20.9891 138.542 21.0291 138.381C21.0291 138.341 21.1096 138.3 21.1498 138.3C21.1901 138.3 21.2706 138.3 21.3109 138.3C21.3914 138.381 21.4318 138.461 21.4722 138.582C21.553 138.864 21.6337 139.105 22.0362 139.024C22.1972 138.984 22.3984 138.983 22.5193 139.064C22.9623 139.305 23.4053 139.506 23.9287 139.586C24.4521 139.666 25.0568 140.511 25.0574 141.074C25.0575 141.195 25.0174 141.316 24.9772 141.397C24.8566 141.598 24.736 141.759 24.5752 141.92C24.4545 142.041 24.2533 142.122 24.2535 142.243C24.2536 142.404 24.4951 142.404 24.616 142.444C25.2603 142.685 25.5425 143.167 25.664 143.811C25.664 143.892 25.6239 144.013 25.5435 144.093C25.4631 144.174 25.3826 144.214 25.2619 144.295C24.8596 144.577 24.7392 144.899 24.9408 145.262C25.3037 145.865 25.6667 146.549 26.4318 146.75C26.5123 146.79 26.6332 146.87 26.6735 146.951C27.1978 147.917 28.1244 148.6 28.7693 149.485C29.2127 150.089 29.8168 150.289 30.5009 150.087C30.7826 150.006 31.0241 149.966 31.3058 149.885C31.5875 149.804 31.8693 149.844 32.0708 150.045C32.5544 150.568 33.118 150.568 33.7619 150.406C34.1241 150.285 34.5266 150.244 34.8887 150.123C35.1302 150.042 35.2508 149.881 35.3311 149.68C35.4114 149.478 35.4514 149.237 35.411 149.036C35.33 148.633 35.2088 148.19 35.2486 147.747L35.2084 147.747C35.1681 147.747 35.1278 147.707 35.0876 147.707C34.9668 147.707 34.846 147.707 34.7655 147.708C34.7253 147.708 34.6448 147.708 34.6045 147.667C34.5238 147.547 34.6043 147.506 34.7654 147.587C34.8862 147.627 35.007 147.667 35.1279 147.747C35.1681 147.747 35.2084 147.747 35.2889 147.747L35.2889 147.788C35.5305 147.828 35.8124 147.908 36.0539 147.908C36.4967 147.907 36.7787 148.108 37.0608 148.43C37.2623 148.671 37.5441 148.671 37.8258 148.55C38.0672 148.429 38.2685 148.509 38.4699 148.59C38.631 148.67 38.7518 148.75 38.8727 148.871C39.0741 148.992 39.1948 148.951 39.2349 148.79C39.3955 148.307 39.5158 147.824 38.9116 147.502C38.8713 147.462 38.831 147.381 38.8309 147.341C39.2331 146.938 39.5142 146.334 40.1984 146.172C40.3594 146.132 40.3995 145.93 40.2383 145.81C40.198 145.77 40.1578 145.77 40.1175 145.729C39.7951 145.448 39.7951 145.448 39.9959 144.965C40.036 144.803 40.0761 144.642 40.0759 144.481C40.0758 144.32 39.9951 144.159 39.9949 143.998C39.9949 143.958 39.9948 143.878 40.035 143.837C40.1155 143.757 40.196 143.757 40.2766 143.877C40.5991 144.36 41.0422 144.601 41.5658 144.882C42.6935 145.485 43.7409 146.209 44.3459 147.416C44.5476 147.818 44.8297 148.14 45.0314 148.543C45.3139 149.187 45.717 149.79 46.0397 150.434C46.2414 150.836 46.5235 151.158 46.8861 151.44C47.0875 151.6 47.128 151.802 47.0477 152.003C46.8872 152.527 47.0084 153.01 47.2906 153.412C47.5325 153.774 47.7744 154.136 48.0566 154.498C48.5402 155.061 48.8629 155.705 48.9039 156.43C48.9042 156.712 48.9849 156.993 48.9852 157.275C49.0261 157.839 49.4289 158.12 49.8318 158.442C49.8721 158.482 50.0331 158.482 50.1135 158.401C50.194 158.361 50.2744 158.24 50.2742 158.119C50.2741 157.958 50.2739 157.797 50.1932 157.636C50.0319 157.315 50.1523 156.992 50.1118 156.67C50.0713 156.469 50.0308 156.187 49.8696 156.067C49.4667 155.705 49.3455 155.262 49.3047 154.739C49.2637 154.014 48.9412 153.491 48.2968 153.169C48.2968 153.169 48.2565 153.169 48.2565 153.21L48.2162 153.129L48.2565 153.169C48.4576 153.048 48.699 152.887 48.9002 152.766C49.0611 152.645 49.0611 152.645 48.7389 152.485C48.6583 152.444 48.4973 152.404 48.4569 152.324C48.3759 151.841 48.1339 151.398 48.1737 150.875C48.2137 150.673 48.294 150.472 48.1328 150.271C47.891 150.029 47.8102 149.707 47.6891 149.385C47.4471 148.903 47.366 148.299 46.7619 148.098C46.52 147.736 46.2781 147.374 46.1167 146.971C46.0763 146.851 46.1164 146.649 46.1565 146.488C46.0356 146.408 45.8343 146.328 45.794 146.247C45.713 145.845 45.4712 145.563 45.3098 145.201C45.1484 144.798 44.9469 144.557 44.5442 144.396C44.4234 144.356 44.2622 144.195 44.1816 144.075C43.6977 143.31 43.2139 142.586 43.0118 141.7C42.8501 141.056 42.5679 140.614 42.0442 140.252C41.8427 140.091 41.7217 139.809 41.5605 139.608C41.4395 139.407 41.3588 139.206 41.2379 139.045C41.0363 138.723 40.7141 138.643 40.3923 138.804C40.2313 138.885 40.1106 138.966 39.9497 139.046C39.7083 139.167 39.5472 139.127 39.3458 138.966C38.9832 138.645 38.8217 138.242 38.942 137.759C39.0222 137.477 38.9415 137.236 38.74 136.994C38.4579 136.672 38.2562 136.27 37.7328 136.19C37.4509 136.11 37.2897 135.868 37.2893 135.546C37.2488 135.305 37.2084 135.103 37.007 134.983C36 134.42 35.677 133.414 35.2332 132.489C35.0719 132.167 35.3533 131.804 35.7156 131.804C35.8766 131.803 36.0376 131.803 36.1987 131.803C36.2792 131.803 36.3599 132.004 36.3599 132.045C35.9983 132.689 36.0794 133.333 36.4826 133.896C36.5632 134.017 36.6841 134.178 36.8049 134.218C37.6104 134.539 38.1745 135.143 38.7789 135.666C39.0206 135.867 39.2622 135.907 39.5035 135.665C39.6241 135.544 39.6644 135.544 39.745 135.665C39.9063 135.946 40.0274 136.268 40.1887 136.55C40.2693 136.671 40.511 136.751 40.6316 136.63C40.7523 136.549 40.9131 136.388 40.913 136.267C40.9127 135.985 40.8722 135.704 40.7109 135.462C40.4287 134.979 40.2268 134.456 40.1056 133.933C40.0248 133.732 39.9843 133.49 39.8634 133.329C39.6214 132.846 39.3391 132.364 39.4593 131.76C39.4994 131.639 39.3382 131.438 39.2978 131.317C39.1768 131.075 38.9753 130.874 38.7336 130.714C38.5322 130.553 38.5723 130.351 38.7331 130.19C38.733 130.069 38.7329 129.989 38.7328 129.868C38.4912 129.788 38.2898 129.707 38.0888 129.989C37.9682 130.151 37.7671 130.272 37.5659 130.352C37.244 130.473 36.9218 130.393 36.7203 130.112C36.5993 129.951 36.5589 129.79 36.7601 129.709C37.082 129.588 37.3234 129.427 37.2425 129.024C37.202 128.783 37.2017 128.501 37.2015 128.259C37.2015 128.259 37.2015 128.259 37.1612 128.259L37.1209 128.179L37.2014 128.219C37.2014 128.219 37.2014 128.219 37.2015 128.259C37.3625 128.259 37.5235 128.259 37.6845 128.259C38.2882 128.137 38.8516 127.895 39.0521 127.211C39.1725 126.808 39.4943 126.606 39.8564 126.404C40.0174 126.324 40.1784 126.324 40.2991 126.243C40.5002 126.122 40.6611 125.961 40.6608 125.719C40.7009 125.518 40.7409 125.276 40.7407 125.075C40.7402 124.552 40.9007 124.109 41.2626 123.706C41.3833 123.585 41.4234 123.424 41.5038 123.303C41.5038 123.303 41.5037 123.303 41.4635 123.303L41.4232 123.222L41.5037 123.262C41.6244 123.182 41.7451 123.101 41.8657 122.98C42.2276 122.618 42.509 122.215 42.3474 121.651C42.3474 121.611 42.3473 121.53 42.3875 121.49C42.4277 121.369 42.5484 121.289 42.6289 121.369C42.9916 121.731 43.2733 121.691 43.6353 121.368C43.7962 121.207 43.9974 121.126 44.1179 120.925C44.2787 120.683 44.359 120.482 44.7213 120.481C44.9226 120.481 45.1641 120.441 45.3653 120.4C45.8885 120.319 46.3311 120.077 46.6931 119.755C46.8941 119.553 47.0147 119.311 46.9741 119.03C46.9336 118.788 46.7322 118.627 46.531 118.668C46.37 118.708 46.209 118.749 46.048 118.789C46.0078 118.789 45.9272 118.789 45.887 118.789C45.7661 118.709 45.8063 118.628 45.9673 118.588C46.1685 118.507 46.3697 118.386 46.5709 118.346C46.9332 118.345 47.1745 118.103 47.4158 117.902C47.456 117.862 47.5365 117.861 47.5768 117.861C47.6976 117.942 47.6977 118.022 47.6173 118.143C47.5771 118.224 47.4968 118.345 47.4566 118.425C47.3764 118.788 47.5378 119.11 47.8197 119.27C48.1419 119.391 48.4238 119.511 48.7861 119.471C49.108 119.39 49.43 119.349 49.752 119.309L49.7118 119.349C49.752 119.349 49.7923 119.349 49.7923 119.349L49.752 119.309C49.9933 119.107 50.275 118.986 50.6374 119.106C51.1609 119.307 51.7245 119.347 52.2478 119.266C52.288 119.266 52.3685 119.185 52.3685 119.185C52.3684 119.105 52.328 118.944 52.2877 118.903C51.9252 118.702 51.5627 118.542 51.2002 118.341C51.16 118.341 51.0794 118.341 51.0392 118.341C51.0391 118.301 51.0391 118.301 51.0391 118.261C50.8377 118.1 50.757 117.898 50.7969 117.617L50.7566 117.576L50.7566 117.536C50.7163 117.536 50.6761 117.536 50.6358 117.496C50.0315 117.054 49.4272 116.611 48.7024 116.33C48.6621 116.33 48.662 116.169 48.6619 116.089C48.6618 116.049 48.7423 116.008 48.7826 116.008C48.9436 116.008 49.1046 116.008 49.2657 116.048C49.6281 116.168 49.9905 116.289 50.3127 116.45C50.5946 116.57 50.7957 116.409 50.9969 116.288C50.9968 116.248 50.9968 116.248 50.9968 116.207C51.037 116.207 51.0773 116.207 51.1175 116.207C51.2784 116.086 51.4796 116.005 51.6809 115.965L51.7211 115.925L51.8016 115.884L51.7614 115.965C51.7211 115.965 51.7211 115.965 51.6809 115.965C51.5603 116.166 51.3188 116.207 51.1175 116.207C51.0773 116.207 51.0773 116.247 51.0371 116.247C51.0371 116.247 50.9968 116.248 50.9969 116.288C50.9568 116.489 50.957 116.65 50.8766 116.811C50.7561 117.053 50.7563 117.295 50.7566 117.536L50.7969 117.536C50.7969 117.576 50.7969 117.576 50.7969 117.617C51.0386 117.777 51.0791 117.979 51.0391 118.261L51.0794 118.301C51.1197 118.301 51.16 118.341 51.2002 118.341C51.6833 118.381 52.1663 118.3 52.6093 118.541C52.7704 118.621 53.0118 118.46 53.0921 118.218C53.1322 118.138 53.1322 118.057 53.132 117.936L53.0918 117.936C53.0515 117.896 53.0112 117.856 53.0112 117.856C52.9306 117.816 52.8501 117.816 52.7696 117.776C52.8098 117.776 52.8501 117.735 52.8903 117.735C52.9306 117.775 52.9709 117.816 53.0112 117.856C53.0515 117.856 53.0917 117.896 53.132 117.896L53.132 117.936C53.2931 117.976 53.4542 118.017 53.5749 117.976C53.8163 117.815 54.0174 117.694 54.3396 117.814C54.5409 117.895 54.7422 117.935 54.9838 117.975C55.1449 118.015 55.3462 118.055 55.4669 117.974C55.8289 117.692 56.312 117.772 56.7144 117.57C56.7948 117.53 56.835 117.409 56.8349 117.329C56.8348 117.248 56.7541 117.087 56.6736 117.087C56.1904 116.886 55.707 116.605 55.1435 116.606L55.1435 116.646C55.1032 116.646 55.1032 116.646 55.063 116.646C55.0228 116.686 55.0228 116.727 54.9826 116.727C54.9825 116.686 54.9825 116.646 55.0227 116.646L55.063 116.646L55.1032 116.606L55.1435 116.606C55.1433 116.485 55.1432 116.404 55.1431 116.284C55.1431 116.284 55.1029 116.284 55.1029 116.324C55.0626 116.284 55.0626 116.284 55.0223 116.243C55.0626 116.243 55.1028 116.243 55.1431 116.284C55.3443 116.163 55.5454 116.042 55.7063 115.921L55.666 115.88C55.7063 115.88 55.7465 115.88 55.7868 115.88C55.8673 115.84 55.9075 115.8 55.988 115.8C56.149 115.799 56.1491 115.84 55.9881 115.88C55.9478 115.88 55.8673 115.88 55.8271 115.88L55.7868 115.88C55.7465 115.88 55.7466 115.921 55.7063 115.921C55.8676 116.162 56.1092 116.202 56.3507 116.162C56.5921 116.121 56.753 116 56.8736 115.799C56.954 115.638 56.9538 115.477 56.9536 115.316C56.9937 115.114 57.1546 115.033 57.2755 115.154C57.5979 115.476 57.9604 115.677 58.4434 115.676C58.6447 115.676 58.6449 115.918 58.6853 116.038C58.8063 116.24 58.8868 116.28 59.0477 116.119C59.4499 115.756 59.6512 115.756 59.8529 116.239C59.8933 116.359 59.9336 116.44 60.0544 116.44C60.4569 116.359 60.6981 116.036 60.6173 115.755C60.4961 115.392 60.2945 115.03 60.3344 114.628C60.3343 114.587 60.3745 114.507 60.4147 114.507C60.4953 114.507 60.616 114.466 60.6966 114.547C60.8578 114.708 60.9787 114.869 61.1399 115.029C61.422 115.351 61.7844 115.472 62.1869 115.431C62.2674 115.431 62.3478 115.31 62.4282 115.229L62.388 115.27C62.388 115.229 62.388 115.229 62.3879 115.189C62.3477 115.189 62.3476 115.149 62.3074 115.149C62.3476 115.068 62.3879 115.109 62.3879 115.189L62.4282 115.229C62.7097 114.947 62.9912 114.665 63.313 114.423C63.4739 114.262 63.6751 114.222 63.8765 114.302C64.0376 114.382 64.2389 114.463 64.4 114.543C64.4 114.543 64.4 114.543 64.4001 114.583L64.4403 114.583L64.4 114.543C64.5611 114.543 64.7624 114.623 64.8831 114.583C65.1648 114.502 65.4063 114.461 65.6481 114.663C65.6884 114.703 65.7286 114.703 65.8092 114.743L66.7748 114.259C66.8952 113.937 67.0962 113.655 67.3778 113.453C67.6594 113.251 67.8202 113.01 67.9406 112.687C68.0209 112.446 68.1817 112.204 68.3022 111.962C68.3825 111.801 68.5435 111.721 68.7045 111.761C69.0267 111.881 69.3488 111.961 69.6707 111.84C69.7914 111.8 69.9121 111.679 70.0328 111.598L70.0327 111.518L70.073 111.558L70.0328 111.598C70.1535 111.558 70.2743 111.558 70.3547 111.517C70.3948 111.356 70.3947 111.236 70.4348 111.075C70.4748 110.873 70.5551 110.672 70.8369 110.591C71.199 110.47 71.5612 110.349 71.9233 110.147C72.2854 109.945 72.5673 110.106 72.8492 110.227C72.9298 110.267 73.0506 110.347 73.091 110.428C73.1716 110.548 73.2926 110.75 73.2927 110.87C73.1322 111.354 73.0924 111.837 72.7305 112.199L72.7707 112.159L72.7305 112.199C72.7706 112.038 72.7704 111.877 72.8105 111.716C72.8102 111.394 72.6087 111.233 72.3269 111.193C71.6828 111.154 71.0791 111.275 70.4755 111.517C70.355 111.759 70.2344 112.001 69.9527 112.082C69.671 112.162 69.4296 112.243 69.1479 112.324C68.5442 112.486 68.1823 112.848 68.0218 113.412C67.9015 113.855 67.6604 114.218 67.379 114.58C67.2181 114.782 67.0171 114.983 66.8563 115.225C66.7759 115.346 66.7761 115.547 66.736 115.708C66.6959 115.829 66.8974 116.07 67.0181 116.03C67.3401 115.989 67.662 115.868 67.9841 115.908C68.1451 115.908 68.3061 115.827 68.4268 115.747C68.7485 115.505 68.9898 115.223 69.3116 115.021C70.2771 114.376 71.0813 113.53 72.0468 112.885C72.1675 112.804 72.2881 112.643 72.3685 112.522L72.3283 112.562L72.3685 112.522C72.53 112.965 72.8523 113.246 73.3756 113.246C74.1002 113.245 74.8248 113.284 75.5494 113.243C76.4752 113.202 77.2805 113.362 78.1261 113.684C79.0121 114.005 79.8579 114.447 80.7839 114.647C81.6295 114.848 82.4752 115.169 83.2003 115.651C83.8851 116.134 84.6098 116.254 85.4149 116.213C85.5759 116.213 85.7369 116.212 85.8979 116.172C86.7834 116.131 87.6692 116.251 88.4346 116.773C88.6763 116.934 88.9581 116.974 89.2397 116.853C89.803 116.571 90.3665 116.49 91.0108 116.65C91.2524 116.73 91.5744 116.69 91.8159 116.649C91.9769 116.649 92.1379 116.609 92.2988 116.568C92.7414 116.366 93.2243 116.205 93.6669 115.963C93.7876 115.882 93.9082 115.721 93.9886 115.6C94.1895 115.278 94.1895 115.278 94.4312 115.398C94.5922 115.439 94.7131 115.559 94.8742 115.599C95.0352 115.639 95.1963 115.679 95.3572 115.599C95.8401 115.437 96.2424 115.155 96.766 115.396C96.8868 115.436 97.088 115.356 97.2489 115.315C97.8525 115.033 98.4561 114.79 99.0596 114.508C99.3815 114.347 99.6632 114.266 100.026 114.306C100.428 114.346 100.589 114.225 100.669 113.943C100.829 112.976 101.432 112.251 101.915 111.445C102.316 110.76 102.88 110.398 103.644 110.357C104.248 110.316 104.852 110.154 105.415 109.992C106.421 109.71 107.387 109.225 108.434 109.104C108.756 109.063 109.037 108.861 109.278 108.579C109.721 108.056 110.284 107.733 110.887 107.41C111.209 107.209 111.531 107.289 111.813 107.45C112.055 107.57 112.095 107.771 112.055 108.013C112.055 108.053 112.056 108.134 112.096 108.174C112.136 108.335 112.378 108.415 112.499 108.335C113.022 108.052 113.424 107.689 113.665 107.166C113.986 106.481 114.509 105.997 114.991 105.474C115.193 105.272 115.474 105.151 115.756 105.191C116.038 105.191 116.32 105.19 116.561 105.271C116.924 105.351 117.165 105.23 117.447 104.988C118.251 104.182 118.934 103.215 120.021 102.69C120.181 102.61 120.221 102.288 120.06 102.087C119.859 101.845 119.577 101.725 119.335 101.805C118.933 101.927 118.611 102.128 118.33 102.37C118.088 102.612 116.921 103.257 116.6 103.338C116.318 103.419 116.076 103.54 115.795 103.621C115.352 103.702 114.909 103.742 114.466 103.823C113.943 103.945 113.702 104.428 113.219 104.59C112.495 104.832 111.771 105.155 111.127 105.558C110.443 106.002 109.638 106.284 108.995 106.848C108.874 106.969 108.713 107.05 108.552 107.05C107.747 107.132 106.902 107.293 106.097 107.053C105.976 107.013 105.895 106.932 105.935 106.811C106.056 106.489 106.217 106.207 106.337 105.925C106.498 105.603 106.699 105.401 107.061 105.361C107.786 105.239 108.47 105.158 109.154 104.876C110.2 104.472 111.166 103.907 112.01 103.222C112.171 103.101 112.332 102.859 112.533 102.819C113.056 102.697 113.378 102.335 113.7 101.972C113.901 101.73 114.102 101.448 114.343 101.207C114.464 101.086 114.625 101.045 114.786 101.166C114.866 101.246 114.987 101.286 115.068 101.327C115.309 101.487 115.632 101.447 115.833 101.205C116.074 100.883 116.315 100.601 116.476 100.238C116.676 99.8353 116.918 99.6338 117.361 99.5931C117.562 99.5929 117.723 99.3914 117.884 99.2302C119.653 97.5375 120.578 97.0534 122.55 96.528C122.711 96.4876 122.872 96.4874 123.033 96.5275C123.235 96.6078 123.476 96.6881 123.638 96.8087C124.161 97.2108 124.684 97.0492 125.167 96.7669C125.61 96.5249 126.012 96.2024 126.173 95.7191C126.333 95.2358 126.655 94.8329 127.057 94.5507C127.499 94.2281 127.7 93.7851 127.821 93.3018C127.861 93.1005 127.901 92.8589 127.941 92.6575C128.021 92.4561 128.061 92.2145 128.222 92.0533C128.865 91.328 129.347 90.5626 129.588 89.596C129.708 89.1128 129.949 88.6697 130.19 88.2266C130.472 87.7432 130.632 87.2196 130.793 86.6961C131.355 84.8838 131.354 84.8435 130.668 83.0324C130.467 82.5093 130.546 81.9858 130.868 81.6231C131.672 80.7768 132.275 79.7697 133.2 79.0038C133.603 78.6813 133.844 78.2382 133.883 77.7148C133.963 76.99 134.204 76.3053 134.405 75.6207C134.645 74.8555 135.007 74.0499 134.925 73.2045C134.925 73.0032 135.006 72.8823 135.167 72.8419C135.649 72.6804 135.971 72.2775 136.373 71.955C136.816 71.5922 137.178 71.1892 137.66 70.8666C137.902 70.6651 138.224 70.544 138.586 70.6644C139.11 70.8249 139.431 70.5428 139.552 70.0595C139.632 69.8581 139.712 69.6567 139.712 69.4152C139.712 69.2541 139.712 69.0931 139.792 68.932C140.114 68.529 140.355 68.0859 140.918 68.0048C141.522 67.8834 141.642 67.4002 141.762 66.8767C141.802 66.7156 141.762 66.5546 141.722 66.3936C141.52 65.8301 141.721 65.3871 142.083 65.0243C142.445 64.7019 142.605 64.2991 142.887 63.9768C143.208 63.6141 143.168 63.4128 142.805 62.9703C142.644 62.7692 142.443 62.7291 142.241 62.8098C142.08 62.8503 141.879 62.9713 141.799 62.8103C141.516 62.3677 141.073 62.1266 140.711 61.8049C140.63 61.7244 140.63 61.4829 140.71 61.362C140.951 60.8786 141.313 60.5562 141.836 60.4751C142.239 60.4345 142.601 60.3133 142.883 60.0715C143.285 59.749 143.808 59.7082 144.17 59.3052C144.25 59.2246 144.492 59.1841 144.613 59.184C145.337 59.1833 146.062 59.1423 146.746 59.2221C147.149 59.2619 147.511 59.2213 147.833 58.9794C147.994 58.8585 148.155 58.8986 148.316 59.0192C148.84 59.3408 149.363 59.6623 149.605 60.266C149.888 60.8696 150.331 61.2315 150.935 61.3919C151.297 61.4721 151.499 61.6732 151.66 61.9951C151.822 62.2768 151.983 62.5987 152.144 62.8804C152.184 62.9608 152.305 63.0412 152.426 63.0411C153.795 63.3618 153.795 63.3618 154.721 63.8843C154.802 63.9245 154.923 64.0451 155.003 64.045C155.567 64.0847 156.131 64.1647 156.654 64.0836C157.056 64.0027 157.338 63.5998 157.539 63.197C157.539 63.1567 157.498 63.1165 157.458 63.0763C157.377 62.9959 157.297 62.9557 157.216 62.8752C157.297 62.8349 157.377 62.7946 157.458 62.7945C157.74 62.7942 158.021 62.8744 158.183 63.1158C158.424 63.4377 158.586 63.7596 158.868 64.0411C159.231 64.4837 159.714 64.765 160.318 64.5631C160.559 64.4823 160.841 64.4015 161.123 64.361C161.283 64.3205 161.445 64.3606 161.606 64.4007C161.928 64.5212 162.129 64.4002 162.29 64.1182C162.491 63.7959 162.692 63.4334 162.852 63.1111C163.053 62.7083 163.335 62.3457 163.777 62.1842C164.139 62.0228 164.461 61.8212 164.702 61.4988C164.823 61.3377 165.024 61.1764 165.225 61.136C165.909 60.934 166.513 60.4905 167.197 60.2482C168.082 59.9252 168.887 59.4413 169.651 58.9171C170.456 58.3527 171.341 57.8687 172.186 57.3444C172.306 57.2638 172.507 57.183 172.669 57.2231C173.192 57.3434 173.514 57.021 173.835 56.7388C174.881 55.8118 175.484 54.5228 176.328 53.4349C176.489 53.2335 176.529 52.9113 176.649 52.6697C176.93 52.0655 177.171 51.421 177.654 50.9777C178.297 50.3731 178.86 49.6479 179.423 49.0031C179.584 48.8419 179.785 48.7612 179.986 48.7207C180.268 48.6802 180.55 48.6799 180.791 48.6394C181.355 48.518 181.878 48.437 182.442 48.5975C182.643 48.6375 182.885 48.597 183.086 48.5163C184.172 48.1528 185.259 48.2323 186.346 48.5533C186.508 48.5934 186.669 48.6335 186.83 48.593C188.48 48.1888 190.13 48.4287 191.781 48.3465C192.224 48.346 192.666 48.4261 193.109 48.4659C193.673 48.5459 194.196 48.6661 194.72 48.7864C195.042 48.8666 195.364 48.9065 195.686 48.7854C196.169 48.5836 196.692 48.6234 197.135 48.8242C197.618 49.025 198.101 49.0245 198.584 48.8227C199.228 48.5403 199.913 48.7409 200.556 48.4584C200.838 48.3373 201.201 48.498 201.523 48.4574C201.804 48.4571 202.086 48.4166 202.328 48.3358C202.609 48.255 202.851 48.295 203.133 48.3753C203.495 48.4957 203.857 48.5758 204.26 48.6962C205.508 48.9768 206.757 49.2574 207.964 49.538C208.166 49.578 208.407 49.6583 208.528 49.8192C208.851 50.1812 209.253 50.1808 209.575 49.9792C210.138 49.6163 210.823 49.5753 211.426 49.2124C211.949 48.8898 212.472 48.8892 212.996 49.2108C213.318 49.3715 213.6 49.4115 213.962 49.3709C214.284 49.3303 214.606 49.33 214.969 49.3296C215.371 49.3292 215.733 49.208 216.055 48.9661C216.216 48.8452 216.417 48.684 216.578 48.563C216.538 49.167 216.619 49.2474 217.102 49.408C217.263 49.4481 217.424 49.5284 217.585 49.488C218.109 49.4069 218.632 49.3259 219.195 49.2045C219.356 49.1641 219.477 48.8017 219.356 48.6407C219.154 48.4396 218.953 48.2385 218.671 48.2791C218.309 48.2794 217.906 48.2799 217.544 48.24C217.222 48.2 216.9 48.3614 216.659 48.5629C216.739 48.281 216.658 48.0395 216.497 47.7981C216.376 47.597 216.456 47.5566 216.698 47.5161C216.859 47.4757 217.02 47.395 217.181 47.3948C217.905 47.4344 218.59 47.5545 219.314 47.5135C220.039 47.4725 220.723 47.5523 221.408 47.6724C221.649 47.7124 221.851 47.7122 222.052 47.5912C222.695 47.188 223.299 47.3484 223.944 47.6296C224.065 47.6697 224.105 47.7502 224.065 47.871C224.025 47.9113 224.025 47.9918 223.984 47.9919C223.783 48.0726 223.582 48.1131 223.421 48.1938C223.422 48.6769 223.663 49.0792 224.106 49.1593C224.67 49.2795 225.113 49.6012 225.596 49.802C225.677 49.8422 225.798 49.7615 225.878 49.6809C225.959 49.6003 225.999 49.4795 225.958 49.399C225.918 49.238 225.716 49.1174 225.716 48.9967C225.716 48.6746 225.796 48.3524 225.876 48.0302C225.917 47.8692 226.198 47.7078 226.399 47.7479C226.802 47.828 227.245 47.9483 227.647 47.8674L227.647 47.8271C227.688 47.8271 227.688 47.8271 227.728 47.7868C227.728 47.7465 227.768 47.7062 227.768 47.7062C227.849 47.7062 227.808 47.7465 227.728 47.7868C227.728 47.8271 227.728 47.8271 227.688 47.8674L227.647 47.8674C227.688 48.1894 227.769 48.4712 227.97 48.7126C228.132 48.8734 228.293 48.9941 228.534 48.9536C228.735 48.9131 228.937 48.8726 229.138 48.7919C229.299 48.7515 229.379 48.5501 229.54 48.5499C229.741 48.5095 229.983 48.5897 230.144 48.4285C230.224 48.3882 230.265 48.3076 230.305 48.2271L230.264 48.1466L230.345 48.1868C230.345 48.1868 230.345 48.227 230.305 48.2271C230.466 48.2269 230.627 48.2267 230.748 48.2669C231.231 48.3469 231.231 48.3469 231.472 47.9441C231.633 47.7023 231.793 47.4606 231.954 47.2189L231.994 47.2188C231.994 47.2188 231.994 47.2188 231.994 47.1786C232.356 46.9769 232.397 46.9769 232.638 47.1779L232.638 47.2182L232.679 47.2182L232.638 47.1779C233.162 47.1774 233.685 46.9756 234.249 47.136C234.49 47.2163 234.651 47.0149 234.651 46.7733C234.651 46.5317 234.53 46.4111 234.248 46.3711C233.845 46.3312 233.443 46.3719 233.04 46.171C233.04 46.171 233.04 46.171 233 46.171L232.919 46.2114L232.959 46.1308C233 46.1308 233 46.1308 233.04 46.171C233.201 46.0098 233.362 45.9291 233.603 45.9289C233.845 45.9286 234.046 45.8479 234.207 45.6867C234.408 45.5254 234.569 45.4448 234.77 45.6056C234.931 45.7262 235.133 45.8871 235.133 46.1286C235.133 46.2494 235.093 46.3702 235.133 46.4507C235.174 46.5312 235.254 46.6519 235.335 46.6921C235.456 46.7322 235.536 46.6919 235.576 46.5711C235.616 46.41 235.697 46.2488 235.697 46.0878C235.736 45.5644 236.179 45.4029 236.541 45.2012C236.863 45.3217 237.064 45.1604 237.225 44.9187C237.466 44.5561 237.708 44.2338 237.949 43.9114C237.949 43.8712 237.949 43.8712 237.949 43.8309C237.989 43.8309 237.989 43.7906 238.029 43.7906C238.069 43.71 238.15 43.6294 238.23 43.5891C238.23 43.5488 238.27 43.5488 238.27 43.5085L238.351 43.4682L238.311 43.5487C238.27 43.5488 238.27 43.589 238.23 43.5891C238.19 43.7099 238.11 43.7502 238.029 43.7906C238.029 43.8309 237.989 43.8309 237.989 43.8711L237.949 43.9114C237.99 44.3945 237.95 44.8374 237.668 45.2403C237.628 45.3209 237.588 45.4417 237.588 45.5625C237.588 45.6028 237.669 45.6832 237.669 45.6832C237.79 45.6831 237.91 45.6427 237.95 45.6024C238.433 44.9175 238.835 44.2326 239.478 43.7086C239.72 43.5071 239.84 43.1446 239.92 42.8627C240.001 42.6613 239.92 42.4601 239.92 42.2185C239.799 42.1784 239.678 42.098 239.557 42.0578C239.517 42.0176 239.477 41.9774 239.476 41.9371C239.476 41.8163 239.557 41.8163 239.678 41.8564C239.758 41.8966 239.839 41.8562 239.919 41.8562C239.959 41.7756 240 41.6548 239.999 41.5743C240.08 41.2118 240.24 40.9701 240.643 41.0502C240.764 41.0903 240.844 41.0097 240.884 40.8889C240.964 40.4862 241.246 40.2444 241.608 40.083C241.809 40.0022 241.849 39.7606 241.849 39.5191C241.607 39.318 241.325 39.1975 241.164 38.9159C241.124 38.7951 241.124 38.6743 241.244 38.634C241.325 38.5936 241.446 38.5935 241.566 38.5934C241.768 38.5932 242.009 38.6332 242.17 38.4317C242.291 38.2705 242.371 38.0289 242.411 37.8276C242.451 37.6665 242.37 37.5055 242.37 37.3445C242.37 37.1432 242.41 36.9016 242.41 36.7003C242.45 36.3379 242.409 36.3379 241.926 36.4592L241.927 36.4994C241.886 36.4995 241.886 36.4995 241.846 36.4995C241.846 36.5398 241.806 36.5398 241.806 36.5801C241.766 36.5399 241.766 36.5399 241.846 36.4995L241.886 36.4592C241.886 36.4592 241.886 36.4592 241.926 36.4592C241.846 36.1774 241.765 35.8554 241.684 35.5737C241.603 35.3322 241.442 35.2116 241.201 35.1716C241.08 35.1717 241.039 35.051 241.08 34.8899C241.12 34.6885 241.24 34.4066 241.159 34.2456C240.958 33.8835 240.676 33.5617 240.434 33.1996C240.434 33.1996 240.313 33.1997 240.273 33.24C240.072 33.4012 240.193 33.6427 240.112 33.8441C239.831 34.569 239.51 35.2538 239.189 35.9386C239.148 36.0191 239.068 36.14 238.988 36.2206C238.626 36.543 238.385 36.9862 237.982 37.2684C237.741 37.4297 237.54 37.5104 237.258 37.5912C236.534 37.7127 236.252 38.1156 236.213 38.8403C236.213 39.0416 236.213 39.2429 236.213 39.404C236.213 39.404 236.254 39.4039 236.254 39.4442C236.254 39.4845 236.254 39.4845 236.294 39.5247C236.455 39.5648 236.616 39.5646 236.656 39.6451C236.939 40.2085 237.422 40.1677 237.905 40.2478C237.945 40.2477 238.026 40.2476 238.066 40.2879C238.106 40.2878 238.146 40.3683 238.147 40.4085C238.147 40.4488 238.066 40.5294 238.026 40.5295C237.825 40.5297 237.583 40.5702 237.382 40.5301C236.818 40.4502 236.415 40.1285 236.294 39.565C236.254 39.565 236.254 39.565 236.213 39.565C236.213 39.5248 236.213 39.5248 236.213 39.4845C235.931 39.364 235.649 39.2033 235.77 38.8005C235.77 38.7603 235.81 38.6797 235.81 38.6394C235.77 38.559 235.729 38.398 235.689 38.3577C235.608 38.3176 235.488 38.3177 235.407 38.358C235.045 38.6 234.723 38.9224 234.321 39.1241C233.919 39.3258 233.476 39.4068 233.073 39.5279C232.591 39.6895 232.188 39.5691 231.825 39.2876C231.664 39.1268 231.503 39.0061 231.382 38.8452C231.06 38.4027 230.617 38.2018 230.093 38.2829C229.61 38.3236 229.248 38.1629 228.885 37.8412C228.523 37.4792 228.12 37.1978 227.757 36.8761C227.515 36.7153 227.274 36.635 226.992 36.6756C226.831 36.716 226.67 36.7162 226.509 36.7566C226.066 36.8375 225.664 37.0392 225.665 37.6029C225.665 37.8847 225.544 38.1264 225.343 38.3682C225.142 38.61 224.941 38.892 224.74 39.1337C224.258 39.6576 223.694 39.6985 223.13 39.2964C222.929 39.1356 222.687 38.9345 222.566 38.6931C222.364 38.3712 222.243 38.009 222.082 37.6468C222.042 37.5663 221.961 37.4456 221.88 37.4054C221.397 37.3656 220.994 36.9634 220.471 37.2055C220.31 37.2862 220.149 37.2864 219.988 37.2865C219.546 37.3273 219.143 37.2471 218.78 36.8852C218.579 36.6841 218.297 36.483 218.055 36.3222L218.015 36.3625C218.015 36.4833 218.015 36.6444 217.975 36.7652C217.935 36.886 217.814 36.8459 217.734 36.7654C217.693 36.7252 217.693 36.6447 217.693 36.6044C217.814 36.5238 217.894 36.4432 218.015 36.3625C218.015 36.3223 218.015 36.3223 218.015 36.282L218.055 36.3222C218.055 36.2015 218.095 36.1209 218.095 36.0001C218.054 35.5975 217.813 35.3562 217.45 35.3968C217.169 35.4374 216.927 35.5182 216.645 35.599C216.525 35.6393 216.404 35.881 216.485 36.042C216.525 36.1627 216.606 36.2432 216.646 36.3237C216.888 36.8468 216.647 37.3302 216.124 37.4918C215.802 37.5726 215.48 37.6534 215.158 37.694C215.037 37.7344 214.957 37.7748 214.836 37.7749C214.635 37.8153 214.433 37.5337 214.473 37.3324C214.594 37.0102 214.674 36.688 214.835 36.406C215.076 36.0032 215.116 35.5603 215.035 35.1175C214.954 34.6747 214.47 34.1115 214.027 34.1522C213.705 34.1525 213.383 34.2737 213.061 34.274C212.699 34.2743 212.296 34.154 211.934 34.1141C211.894 34.1141 211.813 34.1545 211.773 34.1545C211.652 34.1949 211.572 34.2352 211.451 34.2353C211.089 34.3162 210.888 34.1554 210.968 33.8332C211.248 32.5849 211.126 31.4174 210.642 30.2503C210.521 29.9284 210.44 29.6064 210.279 29.3247C210.037 28.8016 209.755 28.359 209.11 28.2388C208.748 28.1587 208.426 27.9174 208.063 27.797C207.862 27.7167 207.661 27.6767 207.419 27.5964C207.177 27.5564 206.855 27.6775 206.735 27.9192C206.655 28.0803 206.614 28.2011 206.494 28.3623C206.414 28.5234 206.253 28.5638 206.051 28.564C205.89 28.5642 205.729 28.5241 205.568 28.484C205.125 28.3234 204.844 28.525 204.562 28.8071C204.24 29.1698 204.08 29.6128 203.718 29.9352C203.718 29.9755 203.718 29.9755 203.718 30.0158C203.678 30.0158 203.678 30.0158 203.637 30.0158C203.597 30.0561 203.597 30.0562 203.557 30.0964C203.557 30.0562 203.597 30.0159 203.597 30.0159L203.637 30.0158L203.678 29.9755L203.718 29.9352C203.798 29.13 203.797 28.3247 204.239 27.6399C204.319 27.519 204.319 27.3177 204.319 27.1566C204.359 26.8345 204.358 26.5124 204.358 26.1501C204.357 25.3046 204.075 24.6607 203.31 24.2186C202.947 23.9774 202.464 23.8974 202.182 23.5353C201.859 23.133 201.416 22.9322 200.933 22.8119C200.41 22.6916 199.846 22.5312 199.322 22.4109L199.363 22.3706L199.322 22.3706C199.322 22.3706 199.322 22.3706 199.322 22.4109C198.88 22.5321 198.638 22.4921 198.437 22.1702C198.356 22.0495 198.356 21.8885 198.315 21.7677C197.913 21.6876 197.51 21.527 197.148 21.2858C197.067 21.2456 196.986 21.1249 196.986 21.0041C196.986 20.9236 197.107 20.843 197.187 20.8429C197.348 20.8025 197.469 20.7621 197.63 20.7217C197.589 20.3996 197.348 20.2791 197.106 20.1585C196.019 19.7168 194.972 19.2347 194.045 18.5512C193.401 18.109 192.636 17.8279 191.871 18.2716C191.791 18.3119 191.67 18.312 191.549 18.3524C190.543 18.5145 189.697 18.314 189.012 17.5095C188.73 17.1877 188.408 16.8257 188.126 16.5441C187.602 16.0213 187.239 15.4177 186.997 14.7335C186.876 14.3713 186.714 14.0494 186.432 13.7679C186.19 13.5265 186.029 13.2449 185.667 13.1647C185.586 13.1648 185.505 12.9636 185.546 12.883C185.626 12.5608 185.545 12.2388 185.504 11.9168C185.464 11.5947 185.544 11.2726 185.544 10.9505C185.543 10.3466 185.422 9.78305 184.858 9.34074C184.616 9.13969 184.495 8.77747 184.334 8.53607C184.213 8.37515 184.011 8.25456 183.77 8.29506C183.488 8.37588 183.206 8.3359 182.965 8.1751C182.401 7.85359 181.797 7.57237 181.233 7.2106C180.79 6.92922 180.347 6.76861 179.823 6.84966C179.421 6.89033 179.018 6.89074 178.696 6.68975C178.052 6.24753 177.367 6.16772 176.642 6.12818C175.757 6.08881 174.871 6.0897 173.986 6.09059C173.382 6.0912 172.778 6.13208 172.174 6.13269C171.892 6.13298 171.61 6.05274 171.489 5.77103C171.167 5.0064 170.562 4.56414 169.757 4.32339C169.596 4.2833 169.475 4.16264 169.314 4.12253C168.871 3.92168 168.468 3.64026 168.105 3.23801C167.702 2.79556 167.259 2.35314 166.816 1.95098C166.373 1.54882 165.849 1.187 165.285 0.986261C164.722 0.785536 163.433 0.585527 162.991 0.747015C162.347 0.828186 161.622 1.07048 160.898 1.35304ZM68.498 26.8509C68.498 26.8509 68.5785 26.7703 68.6187 26.7702C69.0617 26.8906 69.0621 27.3334 69.2637 27.6151C69.143 27.6957 69.1028 27.7763 69.0625 27.736C68.7403 27.5351 68.5789 27.2132 68.498 26.8509ZM70.7192 33.9345L70.5984 33.8944L70.7191 33.854L70.7192 33.9345ZM67.5395 34.3403C67.4989 34.0586 67.6195 33.8169 67.4582 33.5352C67.1758 33.0121 67.3766 32.4885 67.5371 31.965C67.5773 31.9247 67.698 31.8843 67.8188 31.8842C67.859 31.8841 67.9396 31.9243 67.9396 31.9646C68.0203 32.1658 68.1011 32.367 68.1415 32.528C67.9004 33.0114 67.9814 33.4139 67.9818 33.8568C67.9819 33.9776 67.8613 34.1387 67.781 34.2999C67.7408 34.3402 67.7005 34.3804 67.6603 34.3805C67.6201 34.4208 67.5395 34.3806 67.5395 34.3403ZM70.3578 34.7804L70.398 34.7401L70.3578 34.7804ZM65.974 38.7706C65.974 38.7706 66.0142 38.7303 66.0544 38.69C66.1349 38.6497 66.2154 38.6496 66.2959 38.6093C66.2154 38.6496 66.1349 38.6899 66.0545 38.7303C66.0546 38.8108 66.0143 38.8511 65.974 38.7706ZM66.4582 39.8572C66.3373 39.7768 66.2164 39.6561 66.0956 39.5757C66.1761 39.5354 66.2968 39.495 66.3773 39.4949C66.498 39.4545 66.5785 39.4544 66.82 39.4139C66.8603 39.4139 66.9811 39.454 67.1421 39.4539C67.1823 39.4538 67.1824 39.5344 67.1825 39.5746C67.1426 39.937 66.8207 40.0581 66.4582 39.8572ZM64.851 42.9186C64.8911 42.7575 64.9314 42.7575 64.9316 42.9588C64.9316 42.9991 64.8914 43.0394 64.8915 43.0796C64.8511 42.9991 64.8511 42.9589 64.851 42.9186ZM72.7839 45.5276C72.7839 45.4873 72.8241 45.4067 72.8241 45.4067C72.8241 45.4067 72.9046 45.4067 72.9448 45.4066C73.0658 45.6481 73.1868 45.8492 73.3078 46.0907C73.3078 46.0907 73.2273 46.131 73.1871 46.1713C72.9857 46.0105 72.8245 45.8093 72.7839 45.5276ZM77.4564 48.4216C77.4564 48.3814 77.4966 48.3411 77.4966 48.3008C77.5368 48.3008 77.5771 48.3007 77.5771 48.3007C77.6174 48.3409 77.6174 48.3812 77.6175 48.4215C77.6175 48.4617 77.5773 48.502 77.537 48.5021C77.4968 48.5021 77.4565 48.4619 77.4564 48.4216ZM37.3692 55.1454C37.3691 55.1051 37.3691 55.0246 37.4093 54.9843C37.7712 54.5813 38.254 54.3393 38.7368 54.057C38.777 54.0569 38.8173 54.0569 38.8575 54.0568C38.8978 54.0971 38.9381 54.1373 38.9382 54.1775C38.8981 54.3386 38.8177 54.4997 38.7373 54.6206C38.4559 54.943 38.0535 55.1447 37.6511 55.2659C37.5304 55.3063 37.4096 55.2661 37.3692 55.1454ZM40.0348 63.839C39.9945 63.8391 39.9945 63.7585 39.9944 63.7183C40.0747 63.4766 40.155 63.235 40.4367 63.1542C40.4366 63.1139 40.4366 63.1139 40.4366 63.1139C40.4769 63.1139 40.4768 63.0736 40.4768 63.0736C40.5169 62.8723 40.5569 62.6709 40.7178 62.5097C40.7177 62.4695 40.7177 62.4695 40.7177 62.4292L40.8385 62.4291L40.758 62.4694L40.7178 62.5097C40.718 62.711 40.6377 62.9124 40.4768 63.0736C40.4769 63.1139 40.4769 63.1541 40.4769 63.1541C40.4769 63.1541 40.4769 63.1541 40.4367 63.1542C40.5981 63.5969 40.5982 63.6774 40.3166 63.879C40.2764 63.9193 40.1556 63.8792 40.0348 63.839ZM38.9109 67.0208C38.9108 66.9805 38.951 66.9402 38.9913 66.9401C38.9913 66.9804 39.0316 67.0206 39.0317 67.0609C38.9513 67.1818 38.911 67.1818 38.9109 67.0208ZM76.6981 54.9044C76.6578 54.8642 76.6578 54.8239 76.6578 54.7836C76.698 54.7433 76.6979 54.7031 76.7381 54.6628C76.8589 54.6224 76.8992 54.6626 76.8993 54.7834C76.8993 54.8237 76.8591 54.8639 76.8189 54.9042C76.8189 54.9445 76.7384 54.9043 76.6981 54.9044ZM86.5215 56.0218C86.4812 55.9815 86.4409 55.9413 86.4409 55.9011C86.3601 55.6596 86.1988 55.4182 86.1583 55.1364C86.0772 54.5728 86.0364 54.0495 86.0359 53.4858C86.0355 53.1235 85.9145 52.8418 85.6727 52.6005C85.5921 52.52 85.592 52.3992 85.5516 52.3187C85.5918 52.2784 85.6321 52.2381 85.6723 52.1978C85.9941 51.9962 86.3162 52.0361 86.5982 52.2372C87.0414 52.5991 87.4041 53.0416 87.1632 53.6457C86.8822 54.411 87.0842 55.1757 87.0045 55.9407C87.0046 56.0213 86.8839 56.1422 86.8034 56.1423C86.7229 56.1423 86.602 56.0619 86.5215 56.0218ZM88.0514 56.2618C88.1319 56.2617 88.2527 56.3018 88.2931 56.3823C88.6157 56.9456 88.9383 57.5492 89.1805 58.1529C89.3822 58.5956 89.5437 59.0785 89.7856 59.4809C90.0276 59.8832 90.1489 60.4065 90.1494 60.9299C90.0691 61.091 89.9485 61.2522 89.8279 61.4536C89.7073 61.6148 89.3449 61.5749 89.2643 61.4139C89.224 61.3737 89.1837 61.3335 89.1837 61.2932C89.1023 60.4881 88.7394 59.8443 88.2959 59.2006C88.1347 58.9592 88.0941 58.6774 88.2146 58.3954C88.3351 58.0732 88.2945 57.7512 88.1331 57.4293C88.0121 57.1878 87.9313 56.9061 87.8506 56.6646C87.8504 56.5438 87.9709 56.2618 88.0514 56.2618ZM81.2531 61.0194C81.413 59.8517 81.6937 58.7644 82.0951 57.6769C82.1352 57.5158 82.2558 57.3547 82.3765 57.3143C82.8191 57.0723 83.2616 56.8303 83.7043 56.6285C83.9457 56.5075 84.1068 56.6684 84.3082 56.7889C84.4693 56.8693 84.5098 57.0303 84.4294 57.1914C84.2688 57.5942 83.947 57.7958 83.6654 58.0377C83.6252 58.078 83.6253 58.1988 83.6254 58.3195C83.6255 58.3598 83.706 58.4 83.7463 58.3999C83.9074 58.44 84.1086 58.3996 84.2294 58.48C84.9544 58.8818 85.7196 59.1629 86.5249 59.4037C86.6055 59.4438 86.6861 59.5645 86.7667 59.645C86.8876 59.7656 86.8073 60.0073 86.6866 60.0477C86.3646 60.1285 86.0426 60.1691 85.7206 60.2097C85.4389 60.2502 85.3185 60.6127 85.4395 60.8944C85.5202 61.0554 85.6008 61.1761 85.6815 61.337C85.7621 61.4577 85.8025 61.5382 85.6818 61.6189C85.6416 61.6592 85.5611 61.6592 85.5208 61.619C85.2791 61.4582 85.0776 61.2571 84.8762 61.1365C84.4331 60.8149 83.95 60.7751 83.4671 60.9769C83.2659 61.0576 83.0648 61.1786 82.9039 61.3398C82.7029 61.5816 82.5422 61.9038 82.3411 62.1456C82.2608 62.2665 82.0998 62.3069 81.9791 62.4278L81.9792 62.4681C82.1807 62.7497 82.4628 63.0312 82.7448 63.2323C82.9865 63.3931 83.1477 63.5942 83.1883 63.876C83.2289 64.2383 83.4706 64.4796 83.7526 64.6404C84.6789 65.1226 85.6455 65.5242 86.7323 65.4828C87.7789 65.4415 88.504 65.9642 89.0684 66.7688C89.2296 66.97 89.069 67.3727 88.7873 67.4133C87.8616 67.5753 86.9357 67.5762 86.0496 67.0939C85.526 66.7724 84.9221 66.6925 84.3583 66.4515C84.1166 66.331 83.8349 66.3715 83.5532 66.4926C83.4727 66.5329 83.3519 66.4928 83.2311 66.4929C83.1909 66.4929 83.1103 66.4527 83.07 66.4125C81.5793 65.0854 81.7809 65.4073 81.4972 63.5153C81.4162 63.0725 81.6575 62.7905 81.8987 62.5084L81.8584 62.4682C81.8584 62.4682 81.8987 62.4682 81.8986 62.4279C81.8178 62.1461 81.737 61.8241 81.616 61.5424C81.5756 61.4619 81.4548 61.4218 81.3742 61.3414C81.374 61.1401 81.2532 61.0597 81.2531 61.0194ZM66.7214 61.3562C66.6811 61.3562 66.6811 61.3159 66.6408 61.316C66.5201 61.3161 66.3993 61.3162 66.2785 61.3163C66.1175 61.3165 66.0772 61.236 66.1576 61.1554C66.1978 61.1151 66.2783 61.115 66.3186 61.1553C66.4394 61.1954 66.52 61.2758 66.6409 61.3562C66.6811 61.3562 66.7214 61.3562 66.7616 61.3561L66.802 61.4769L66.7214 61.3562ZM73.6091 65.4558C73.5688 65.4156 73.5688 65.3753 73.5687 65.2948C73.6089 65.2142 73.6893 65.0934 73.7698 65.0933C74.0113 65.0125 74.293 65.0123 74.4945 65.2134C74.5348 65.2536 74.5751 65.2938 74.5751 65.3341C74.6155 65.4548 74.5753 65.5354 74.4547 65.616C74.0925 65.7372 73.8107 65.6972 73.6091 65.4558ZM71.1954 67.0284L71.2759 67.0283L71.2358 67.1894L71.1954 67.0284ZM43.7828 68.1029C43.7023 68.0627 43.6619 67.9017 43.6618 67.8212C43.6617 67.7406 43.7421 67.6198 43.8225 67.5794C43.9835 67.539 44.1445 67.5389 44.2653 67.4985C44.4264 67.5788 44.4667 67.6593 44.3863 67.7802C44.3059 67.901 44.1853 68.022 44.0646 68.1026C43.9841 68.1429 43.8231 68.1431 43.7828 68.1029ZM42.7373 69.2312C42.7776 69.2312 42.8178 69.1909 42.8581 69.1909C42.8984 69.2311 42.9386 69.231 42.9386 69.2713C42.8984 69.2713 42.8582 69.3116 42.8179 69.3117C42.7776 69.2715 42.7776 69.2312 42.7373 69.2312ZM63.1874 69.734C63.1874 69.6937 63.2276 69.6534 63.2275 69.6132C63.2678 69.6131 63.3081 69.6533 63.3081 69.6533C63.3081 69.6936 63.2679 69.7339 63.268 69.7742C63.268 69.7742 63.1874 69.7742 63.1874 69.734ZM72.3259 70.3689C72.3259 70.3689 72.3662 70.3286 72.4064 70.3286C72.4064 70.3286 72.4064 70.3286 72.4064 70.2883C72.4463 69.9662 72.446 69.6441 72.4859 69.3622C72.4858 69.2415 72.6468 69.2413 72.7274 69.3217C72.7677 69.362 72.808 69.4022 72.8081 69.4424C72.7279 69.7646 72.6074 70.0466 72.3661 70.2884L72.3662 70.3286C72.4065 70.4494 72.3663 70.4494 72.3259 70.3689ZM78.1213 68.9942C77.8791 68.31 77.6771 67.6258 77.2337 67.0626C76.8306 66.5396 76.7897 65.815 76.2659 65.3324C76.1047 65.1715 76.1044 64.9299 76.1444 64.6883C76.1845 64.5272 76.2649 64.3661 76.305 64.205C76.4251 63.601 76.7065 63.1981 77.3505 63.0767C77.7127 62.9958 77.954 62.754 77.9939 62.3916C78.074 61.9889 78.3154 61.8679 78.6777 61.8675C79.1607 61.867 79.6437 61.7457 80.1669 61.7049C80.3682 61.6645 80.5295 61.9461 80.4089 62.1476C80.2884 62.349 80.1677 62.5102 80.2082 62.7517C80.2489 63.1945 80.2494 63.6374 80.3304 64.0802C80.4517 64.6437 80.3313 65.0464 79.8888 65.369C79.8084 65.4496 79.728 65.5302 79.6878 65.6107C79.6074 65.7316 79.6077 65.9732 79.4064 65.9331C79.2453 65.893 79.1646 65.732 79.0035 65.6517C78.8827 65.5713 78.8022 65.5714 78.7218 65.6922C78.6816 65.7325 78.6816 65.7728 78.6414 65.8533C78.6416 65.9741 78.6417 66.0949 78.6418 66.1754C78.6821 66.2962 78.7225 66.3767 78.7628 66.4571C79.2465 67.1008 79.4888 67.8253 79.731 68.5497C79.8925 68.9924 79.9734 69.3547 79.4906 69.6773C79.2091 69.8789 79.2899 70.2411 79.25 70.5632C79.25 70.5632 79.2903 70.5632 79.2903 70.6035C79.2903 70.6437 79.2903 70.6437 79.2904 70.684C79.3307 70.7242 79.3307 70.7242 79.371 70.7644C79.3307 70.7645 79.2905 70.7645 79.2904 70.7242L79.2904 70.684L79.2501 70.6438C79.2501 70.6438 79.25 70.6035 79.25 70.5632C78.7666 70.2416 78.3635 69.6784 78.1213 68.9942ZM65.2818 70.8189C65.2416 70.9397 65.1612 70.9801 65.0806 70.8996C65.0403 70.8997 65.0402 70.7789 65.0402 70.7789C65.1207 70.7386 65.2011 70.6982 65.2414 70.6579C65.2414 70.7384 65.2817 70.7786 65.2818 70.8189ZM41.6126 71.6078C41.5319 71.4065 41.4914 71.2053 41.4509 70.9637C41.4508 70.8832 41.5715 70.8026 41.6117 70.722C41.9341 71.084 42.4171 71.003 42.8197 71.1234C43.1017 71.2439 43.1825 71.5257 42.9814 71.7674C42.4185 72.3719 41.9756 72.3321 41.6126 71.6078ZM49.7043 72.0827C49.664 72.0425 49.664 72.0425 49.6237 72.0023C49.5432 71.9621 49.5029 71.9621 49.4224 71.922C49.4223 71.8817 49.4626 71.8817 49.4626 71.8414C49.5029 71.8816 49.5432 71.9218 49.6237 72.0023C49.664 72.0022 49.7043 72.0425 49.7043 72.0827C49.8654 72.1631 50.0266 72.2837 50.1475 72.4044C50.1878 72.4446 50.1878 72.4446 50.2281 72.4848C50.1878 72.4848 50.1475 72.4446 50.1072 72.4447C49.9864 72.324 49.8252 72.2034 49.7043 72.0827ZM44.1897 72.4104L44.3105 72.4102L44.2704 72.5311L44.1897 72.4104ZM57.0319 73.2026L57.1526 73.1622L57.1527 73.2428L57.0319 73.2026ZM74.7849 73.7484C74.5433 73.6278 74.2615 73.6281 74.1405 73.3867C74.1405 73.3867 74.1002 73.3867 74.06 73.3867C74.0197 73.3465 74.0197 73.3465 73.9794 73.3063C74.0196 73.3063 74.0599 73.3465 74.1002 73.3464C74.1002 73.3464 74.1002 73.3464 74.1002 73.3867C74.3014 73.3462 74.4624 73.3058 74.6636 73.2251C74.7039 73.225 74.7843 73.1847 74.8246 73.2249C74.9052 73.3054 74.9456 73.3858 75.0262 73.4663C75.0665 73.5065 75.0263 73.5871 75.0263 73.6273C74.9459 73.7482 74.8655 73.7885 74.7849 73.7484ZM62.8697 74.0422L62.9098 73.9214L62.9502 74.0421L62.8697 74.0422ZM57.637 74.5306C57.5967 74.4099 57.6771 74.3293 57.7978 74.2889C57.9186 74.2888 57.9991 74.3289 57.959 74.49C57.9591 74.5706 57.8787 74.6512 57.8385 74.7317C57.7982 74.6915 57.6774 74.6111 57.637 74.5306ZM70.2774 74.7594C70.8409 74.6783 71.324 74.7986 71.6869 75.3217C71.7271 75.3216 71.7271 75.3216 71.7674 75.3216L71.7675 75.4021L71.7272 75.3619C71.7272 75.3619 71.7272 75.3619 71.6869 75.3217C71.1234 75.443 70.6401 75.2422 70.1971 74.9608C70.1568 74.9608 70.1567 74.8803 70.1567 74.8401C70.1969 74.7998 70.2371 74.7595 70.2774 74.7594ZM63.5952 74.9675C63.5952 74.9272 63.6354 74.8869 63.6757 74.8869C63.7159 74.8868 63.7562 74.927 63.7965 74.927C63.7965 74.9673 63.7966 75.0075 63.7563 75.0478C63.6357 75.1285 63.5954 75.0883 63.5952 74.9675ZM64.965 76.0934C64.9248 76.0532 64.8843 75.8922 64.9245 75.8116C65.0047 75.4894 65.1654 75.2075 65.5276 75.0863C65.8898 74.9652 66.252 74.8843 66.6546 74.9241C67.1779 74.9639 67.7415 74.9633 68.1843 75.0031C68.4661 74.9223 68.627 74.8819 68.7881 74.8817C68.9491 74.8815 69.1503 74.8813 69.2309 74.9618C69.3519 75.163 69.1507 75.2034 68.9897 75.2841C68.8691 75.3648 68.7082 75.4857 68.668 75.6065C68.5878 75.9287 68.3867 76.0899 68.1453 76.1707C67.9843 76.2111 67.8233 76.2515 67.6623 76.292C67.2599 76.3729 66.8173 76.5747 66.4144 76.2932C66.2535 76.3739 66.0523 76.4949 65.8914 76.5756C65.5289 76.4149 65.247 76.2542 64.965 76.0934ZM67.3017 77.943C67.5434 78.0636 67.7448 78.2244 67.9865 78.3852C68.1073 78.4656 68.1477 78.5461 68.027 78.5865C67.9867 78.6268 67.9062 78.6269 67.866 78.6269C67.8257 78.6269 67.7452 78.627 67.7049 78.5868C67.423 78.4663 67.141 78.3055 66.7788 78.3864C66.3764 78.5076 66.417 78.8699 66.2563 79.1519C66.2161 79.1922 66.1356 79.2326 66.1356 79.1923C66.055 79.1521 65.9744 79.0717 65.9743 78.9911C65.9743 78.9106 66.0144 78.7898 66.0143 78.669C66.0543 78.4677 66.0944 78.2663 66.1344 78.065L66.0942 78.065C66.0942 78.065 66.0942 78.065 66.0941 78.0248C65.8528 78.1861 65.5711 78.3474 65.3298 78.5087C64.9275 78.7506 64.4846 78.7108 64.0417 78.5502C63.9209 78.5101 63.7597 78.3492 63.7193 78.2285C63.6789 78.1077 63.7592 77.9063 63.8799 77.8257C64.081 77.6645 64.3224 77.5032 64.5235 77.3822L64.443 77.342L64.5638 77.3821C64.5638 77.3821 64.5638 77.3821 64.5235 77.3822C64.9265 77.8246 65.3291 77.8242 65.7312 77.381C65.8116 77.3004 65.9325 77.3808 65.9728 77.5015C66.0133 77.7028 66.0538 77.904 66.0942 78.1053L66.1344 78.065L66.1345 78.1053C66.3357 78.0245 66.4966 77.9438 66.6979 77.9436C66.8588 77.8227 67.1003 77.8627 67.3017 77.943ZM71.7692 77.1736C71.8095 77.1735 71.8901 77.254 71.8901 77.254C71.8902 77.3345 71.8903 77.4955 71.8501 77.4956C71.4879 77.6167 71.1257 77.6976 70.7634 77.7382C70.6829 77.7383 70.6023 77.6579 70.4815 77.5775C70.4815 77.5775 70.4412 77.5775 70.4413 77.6178C70.3607 77.5776 70.2802 77.5777 70.1997 77.5375C70.1594 77.5375 70.1192 77.5376 70.0789 77.4974C70.1191 77.4973 70.1594 77.5375 70.1997 77.5375C70.2802 77.5374 70.401 77.5776 70.4815 77.5775C70.8034 77.4161 71.085 77.2548 71.4069 77.1337C71.5277 77.1336 71.6484 77.1334 71.7692 77.1736ZM38.3179 77.7307C38.2776 77.7308 38.2775 77.6502 38.2775 77.61C38.3176 77.4892 38.3981 77.4488 38.5189 77.5292C38.5592 77.5292 38.5593 77.6097 38.5593 77.65C38.5192 77.7708 38.4387 77.8111 38.3179 77.7307ZM53.817 78.6411C53.5754 78.6011 53.4544 78.3999 53.414 78.1986C53.4139 78.1181 53.454 77.9973 53.5345 77.9167C53.5344 77.8764 53.6552 77.8763 53.6955 77.9165C54.0177 78.1175 54.2595 78.3588 54.4209 78.721C54.4611 78.7209 54.4611 78.7209 54.5014 78.7209C54.5014 78.7612 54.5014 78.7612 54.5015 78.8014C54.5418 78.8416 54.582 78.8416 54.5821 78.8819C54.5418 78.8819 54.5015 78.8819 54.5015 78.8417L54.5015 78.8014L54.4612 78.7612C54.4612 78.7612 54.4611 78.7209 54.4209 78.721C54.1793 78.681 53.978 78.6812 53.817 78.6411ZM37.8359 78.8585C37.8358 78.6975 37.9162 78.6571 37.9969 78.7778C38.0372 78.818 37.997 78.8986 37.997 78.9389C37.9568 78.9792 37.9166 78.9792 37.9166 79.0195C37.8763 78.9793 37.836 78.8988 37.8359 78.8585ZM57.964 79.4421C57.9236 79.2408 57.8831 79.0396 57.8829 78.8383C57.8426 78.7981 57.8426 78.7578 57.8023 78.7176C57.6814 78.5969 57.5605 78.4763 57.4396 78.3153C57.4396 78.3153 57.4396 78.3153 57.4396 78.2751C57.3993 78.2751 57.3591 78.3154 57.3188 78.3155C55.9907 78.5986 55.8701 78.7598 54.9829 77.2308C54.9426 77.1503 54.9827 76.9892 55.0229 76.9489C55.1033 76.8683 55.2241 76.8682 55.3046 76.8681C55.3449 76.8681 55.4254 76.9082 55.4657 76.9082C55.7477 77.1495 56.0298 77.431 56.3118 77.6723C56.5938 77.8331 56.9159 77.9132 57.1978 78.074C57.2784 78.1142 57.3187 78.1947 57.3993 78.2751L57.4396 78.2751C57.5604 78.3957 57.6813 78.5164 57.8023 78.6773C57.8023 78.7176 57.8023 78.7578 57.8427 78.8383C57.9636 79.0395 58.0443 79.2005 58.1653 79.4016C58.1653 79.4016 58.1251 79.4822 58.0849 79.4822C58.0446 79.4823 57.9641 79.4824 57.964 79.4421ZM32.7644 79.5078L32.8853 79.5479L32.7645 79.5883L32.7644 79.5078ZM36.0262 80.5513C35.9859 80.5111 36.0261 80.4708 36.026 80.4305C36.1064 80.3096 36.1869 80.3096 36.2675 80.39C36.3078 80.4302 36.3079 80.5107 36.3079 80.5107C36.2275 80.6316 36.1068 80.6317 36.0262 80.5513ZM49.8711 117.618L49.9114 117.698L49.8308 117.658C49.7906 117.658 49.7906 117.618 49.7503 117.618C49.7906 117.618 49.8308 117.618 49.8711 117.618ZM47.4951 116.694C47.4548 116.694 47.4548 116.694 47.4146 116.694C47.3744 116.734 47.3342 116.815 47.294 116.855C47.294 116.855 47.2134 116.815 47.1732 116.815C47.2133 116.694 47.3341 116.694 47.4146 116.694L47.4548 116.654C47.495 116.613 47.5353 116.613 47.5755 116.573C47.5353 116.613 47.495 116.654 47.4951 116.694ZM45.3613 116.455C45.3613 116.455 45.3614 116.495 45.4017 116.535C45.3211 116.535 45.2406 116.535 45.1601 116.535C45.2004 116.535 45.2406 116.495 45.2406 116.495C45.2808 116.455 45.3211 116.455 45.3613 116.455ZM54.177 116.244C54.2576 116.325 54.2174 116.446 54.137 116.486C53.9761 116.607 53.7749 116.768 53.5738 116.849C53.3323 116.93 53.0505 116.89 52.8892 116.608C52.8892 116.608 52.8489 116.608 52.849 116.648L52.8087 116.608C52.6879 116.608 52.6074 116.648 52.5268 116.528C52.5671 116.528 52.6073 116.487 52.6073 116.487C52.6878 116.528 52.7281 116.568 52.8087 116.608C52.8489 116.608 52.8489 116.608 52.8892 116.608C52.8892 116.608 52.8892 116.608 52.8892 116.648C53.2513 116.487 53.6538 116.366 54.0159 116.204C54.0561 116.164 54.1367 116.204 54.177 116.244ZM53.0091 115.762C53.0091 115.803 52.9287 115.843 52.9287 115.843C52.8481 115.843 52.7676 115.803 52.687 115.763C52.7675 115.682 52.8077 115.642 52.8881 115.561C52.9687 115.601 53.0493 115.682 53.0091 115.762ZM17.932 100.982C17.9321 101.022 17.8516 101.062 17.8113 101.062C17.6503 101.063 17.4893 101.063 17.5698 101.063C17.2478 101.063 17.1673 101.063 17.0464 101.023C17.0062 101.023 16.9659 100.983 16.9256 100.943L16.9658 100.862C17.2073 100.862 17.4891 100.861 17.7306 100.821C17.8513 100.821 17.9319 100.861 17.932 100.982ZM17.1649 98.6877C17.2051 98.7279 17.2052 98.7682 17.2454 98.7681C17.2052 98.7682 17.1649 98.728 17.1246 98.728L17.1246 98.6475L17.1649 98.6877ZM44.8194 98.0156L44.8597 98.0558L44.8194 98.0156L44.7388 97.9754L44.8194 98.0156ZM58.3426 95.5058C58.3426 95.546 58.3024 95.5863 58.3024 95.6266C58.2621 95.5461 58.2218 95.5059 58.2217 95.4254C58.2217 95.3851 58.2619 95.3851 58.3021 95.3448C58.3022 95.385 58.3425 95.4655 58.3426 95.5058ZM16.0342 95.1861C16.0745 95.2264 16.1148 95.2666 16.1148 95.3068C16.1153 95.8302 16.1159 96.3939 16.1164 96.9173C16.1165 96.9575 16.1568 96.9978 16.1568 97.038C16.2777 97.1587 16.3986 97.2793 16.5195 97.4C16.5195 97.4403 16.5195 97.4403 16.5196 97.4805C16.5598 97.5207 16.6404 97.5609 16.6807 97.6414C16.6807 97.6414 16.6406 97.722 16.6406 97.7622C16.5198 97.7221 16.5197 97.6013 16.5196 97.4805L16.4793 97.4403C16.3584 97.3196 16.2375 97.199 16.0763 97.0784C16.0763 97.0381 16.0763 96.9978 16.0762 96.9173C15.7938 96.354 15.8737 95.75 15.9134 95.1863C15.9537 95.1862 16.0341 95.1459 16.0342 95.1861ZM60.9868 83.0223C60.9868 83.0625 60.9466 83.1028 60.9064 83.1431C60.8259 83.103 60.7051 83.1031 60.6648 83.0629C60.5439 82.9422 60.5035 82.8214 60.5839 82.6603C60.5838 82.6201 60.6643 82.5797 60.7046 82.5797C60.8656 82.6198 61.0269 82.8612 60.9868 83.0223ZM55.5928 83.1888C55.5928 83.229 55.5526 83.3096 55.5124 83.3096C55.4721 83.3097 55.3916 83.3097 55.3513 83.2695C55.1499 83.1087 55.0289 82.9075 55.0689 82.6256C55.0689 82.5854 55.1494 82.5853 55.1896 82.5853C55.4715 82.7057 55.6328 82.9069 55.5928 83.1888ZM44.1597 82.5964L44.0389 82.5562L44.1597 82.5159L44.1597 82.5964ZM30.9149 81.6838C30.9148 81.6032 30.955 81.4824 30.9951 81.4018C30.9951 81.3616 31.0756 81.3615 31.1158 81.3212C31.1561 81.3212 31.2366 81.3211 31.2366 81.3211C31.2367 81.4016 31.2771 81.5223 31.2368 81.5626C31.1163 81.8043 30.9151 81.8448 30.9149 81.6838ZM24.809 94.3721C24.8089 94.3318 24.8089 94.3318 24.7687 94.3318C24.7284 94.3319 24.7284 94.3319 24.6882 94.3319C24.6881 94.2514 24.7284 94.2916 24.7687 94.3318C24.8089 94.3318 24.8089 94.3318 24.8492 94.3318L24.8895 94.4525L24.809 94.3721ZM43.1639 93.0249C43.1237 93.0652 43.1237 93.0652 43.0835 93.1055C43.0834 93.0653 43.1236 93.025 43.1236 92.9847L43.2041 92.9444L43.1639 93.0249ZM31.852 92.7545C32.1744 93.1568 32.2151 93.5996 31.8936 94.1234C31.7731 94.365 31.6523 94.4054 31.5314 94.2445C31.3702 94.0031 31.2491 93.7214 31.0477 93.5606C30.7254 93.3193 30.4836 93.0377 30.3624 92.6755C30.2816 92.3938 30.04 92.2732 29.7581 92.193C29.6776 92.1528 29.5969 92.0321 29.6371 91.9515C29.6368 91.6697 29.8379 91.428 29.7571 91.1462C29.7166 90.945 29.3944 90.7842 29.2335 90.9052C29.0727 91.0664 28.8715 91.1874 28.7912 91.3888C28.5902 91.711 28.5101 92.1137 28.5105 92.5163C28.5113 93.241 28.4315 93.9255 28.3919 94.6503C28.392 94.6905 28.3115 94.7309 28.2713 94.7309C28.1907 94.6907 28.0699 94.6506 27.9893 94.6104C27.949 94.5299 27.9086 94.4092 27.9085 94.2884C27.8674 93.443 27.8263 92.6378 27.8255 91.7923C27.8249 91.1884 27.7438 90.5846 27.5419 89.9809C27.3803 89.4577 27.259 88.8941 27.1779 88.3708C27.1375 88.2098 27.1776 88.0487 27.2177 87.8877C27.2176 87.8071 27.298 87.6863 27.3785 87.6459C27.459 87.6056 27.6201 87.6859 27.6604 87.7664C27.8621 88.2091 28.0236 88.6921 28.1851 89.1348C28.2255 89.2555 28.5073 89.3357 28.628 89.2551C28.6682 89.2148 28.7487 89.2147 28.7487 89.1744C28.8291 89.0938 28.8693 89.0133 28.9497 88.8924C29.4723 88.1672 29.713 87.402 29.0279 86.6377C28.9876 86.5975 28.9876 86.517 29.0278 86.4767C29.0679 86.3559 29.1887 86.3557 29.3095 86.3959C29.5108 86.4762 29.7524 86.5162 29.8734 86.7174C30.0346 86.9185 30.1959 87.1599 30.3973 87.3611C30.5182 87.4817 30.6793 87.5218 30.8001 87.6022C31.3639 87.8432 31.4446 87.9639 31.0827 88.4071C30.6806 88.8504 30.6811 89.2933 30.8828 89.7762C30.9232 89.8969 31.0844 90.0981 31.2052 90.098C31.7688 90.1779 32.0107 90.54 32.132 91.023L32.1722 91.023C32.1723 91.0633 32.1723 91.1035 32.1724 91.1438C32.2933 91.3047 32.374 91.4657 32.4144 91.6669C32.4547 91.6669 32.4547 91.7071 32.495 91.7071C32.495 91.7474 32.495 91.7474 32.4951 91.7876C32.5354 91.8278 32.6159 91.868 32.6562 91.9082C32.6562 91.9082 32.6563 91.9888 32.6161 92.0291C32.4953 91.9889 32.4951 91.8681 32.4951 91.7876L32.4548 91.7474C32.4547 91.7071 32.4547 91.6669 32.4144 91.6669C32.2533 91.5463 32.1726 91.3451 32.1724 91.1438C32.1723 91.1035 32.1321 91.1036 32.132 91.0633L32.132 91.023C31.8904 90.9428 31.6488 90.8625 31.4072 90.7822C31.1253 90.702 30.8036 91.0244 30.9246 91.2658C31.0457 91.5878 31.1668 91.9097 31.328 92.1511C31.449 92.3523 31.6907 92.5131 31.852 92.7545ZM32.8946 88.8482C32.9349 88.8884 32.9753 88.9689 33.0156 89.0494C33.0559 89.0493 33.0559 89.0493 33.0961 89.0493C33.1364 89.0492 33.1364 89.0895 33.1767 89.0895C33.2572 89.0894 33.2974 89.0893 33.3779 89.0893C33.2976 89.2101 33.2572 89.1296 33.1767 89.0895C33.1364 89.0895 33.0962 89.0895 33.0559 89.0896L33.0156 89.0494C32.8948 89.0495 32.7741 89.0496 32.7739 88.8886C32.7739 88.8483 32.8946 88.8079 32.8946 88.8482ZM38.0084 90.1716C38.089 90.2521 38.1695 90.2922 38.1696 90.3325C38.0895 90.7755 37.7677 90.9771 37.4055 91.0982C37.3652 91.0983 37.2041 90.9776 37.1637 90.8972C37.1234 90.8167 37.1232 90.6154 37.1634 90.5751C37.4451 90.454 37.7267 90.3329 38.0084 90.1716ZM46.6644 91.3707L46.5839 91.3708L46.6643 91.2499L46.6644 91.3707ZM51.6937 88.7889C51.7339 88.7889 51.734 88.8694 51.7341 88.9097C51.6536 88.95 51.5328 88.9501 51.4524 88.9905C51.4524 88.9905 51.412 88.91 51.412 88.8697C51.412 88.8295 51.4925 88.8294 51.5327 88.7891C51.6131 88.7488 51.6534 88.7487 51.6937 88.7889ZM44.3264 88.1522C44.5682 88.3935 44.7697 88.6349 44.8103 88.9972C44.8913 89.4802 45.0125 89.9632 45.0533 90.4463C45.0939 90.8489 44.9735 91.2114 44.6517 91.4533C44.4506 91.6145 44.2496 91.816 44.0082 91.9773C44.0082 91.9773 43.9277 91.9774 43.8874 91.9372C43.8471 91.8969 43.847 91.8164 43.847 91.7762C43.887 91.5748 44.0076 91.3734 44.0476 91.1318C44.0474 90.9707 44.0472 90.7694 43.9264 90.689C43.7249 90.4477 43.4831 90.2064 43.2011 90.0053C42.9191 89.7641 42.798 89.4824 42.8379 89.12C42.8378 88.9992 42.8377 88.9187 42.7973 88.7979C42.7569 88.5967 42.5152 88.3956 42.3139 88.4361C42.1529 88.4362 41.9919 88.4766 41.8309 88.4768C41.5089 88.5174 41.1869 88.5982 40.865 88.6791C40.7443 88.7195 40.6637 88.6793 40.6233 88.5585C40.6233 88.5183 40.6635 88.4377 40.7037 88.3974C41.0654 87.8737 41.6288 87.6315 42.1517 87.2687C42.3931 87.1074 42.5136 86.8657 42.5133 86.5839C42.5931 85.8188 42.3911 85.1346 41.9075 84.5714C41.4641 84.0485 41.2622 83.4045 41.1408 82.7605C41.1003 82.519 41.1403 82.2371 41.1802 81.9552C41.1802 81.9552 41.14 81.9553 41.1399 81.915C41.0192 81.9151 41.0192 81.9151 41.0996 81.8345C41.0996 81.8345 41.1399 81.8747 41.1802 81.915C41.1802 81.915 41.1802 81.915 41.1802 81.9552C41.3414 82.0758 41.5025 82.1965 41.6234 82.3574C41.7847 82.5585 41.9057 82.8402 42.0267 83.0817C42.2688 83.6451 42.5511 84.1682 42.9542 84.6509C43.3975 85.2141 43.6398 85.8983 43.9625 86.5421C44.0028 86.6226 44.003 86.7837 43.9628 86.8642C43.7621 87.4683 43.9638 87.8305 44.3264 88.1522ZM58.5353 87.0106C58.495 87.0509 58.4548 87.0509 58.4548 87.0509C58.3743 87.0912 58.2939 87.1316 58.2134 87.1719C58.2939 87.1316 58.3743 87.0912 58.4548 87.0509C58.4144 86.9302 58.4546 86.8899 58.5353 87.0106ZM51.6111 86.7357C51.6514 86.8162 51.5711 86.9371 51.5309 87.0176L51.4101 87.0178C51.249 86.8971 51.0073 86.7766 50.8864 86.6157C50.5235 86.0121 50.1606 85.4086 49.8379 84.7647C49.7976 84.6843 49.8377 84.5232 49.8778 84.4426C50.1191 84.1605 50.32 83.8382 50.3196 83.4356C50.3196 83.3954 50.4806 83.355 50.561 83.3146C50.6013 83.3146 50.6818 83.3548 50.6819 83.395C50.7225 83.7573 50.7632 84.1599 50.8038 84.5222C50.7635 84.5222 50.7635 84.5222 50.7233 84.5223C50.7234 84.6833 50.7236 84.8444 50.7238 85.0054C50.684 85.5288 50.8857 85.9715 51.2887 86.3334C51.4498 86.4943 51.5305 86.615 51.6111 86.7357ZM137.377 69.4175C137.417 69.4577 137.458 69.498 137.498 69.5382C137.579 69.8602 137.297 70.1826 136.975 70.1426C136.935 70.1427 136.854 70.0622 136.854 70.022C136.854 69.7401 136.975 69.4985 137.216 69.3774C137.297 69.3773 137.337 69.4176 137.377 69.4175ZM140.136 50.7337C140.257 50.7336 140.458 50.975 140.418 51.0555C140.378 51.1361 140.297 51.257 140.217 51.2973C139.815 51.5795 139.654 51.5394 139.13 51.0568C139.049 51.0167 139.089 50.8958 139.049 50.7751C139.049 50.7751 139.13 50.7348 139.17 50.7347C139.331 50.6943 139.492 50.6941 139.693 50.6939C139.814 50.6938 139.975 50.7339 140.136 50.7337ZM229.136 47.3425C229.136 47.3828 229.096 47.4231 229.096 47.4231C229.056 47.4231 229.016 47.4232 228.975 47.4232C228.855 47.3831 228.895 47.3428 229.056 47.3023C229.056 47.3023 229.096 47.3425 229.136 47.3425ZM176.241 46.9933L176.201 46.9933C176.201 47.5167 175.879 47.8391 175.477 48.0811C175.437 48.1214 175.276 48.0411 175.195 48.0411C175.195 48.0411 175.155 47.9204 175.195 47.9203C175.477 47.598 175.718 47.1549 176.201 47.0336C176.201 46.9933 176.201 46.9933 176.201 46.9933C176.241 46.953 176.241 46.953 176.281 46.9127C176.281 46.9127 176.241 46.953 176.241 46.9933ZM235.413 43.8335L235.453 43.8334L235.493 43.9542L235.413 43.8737C235.453 43.8737 235.453 43.8737 235.413 43.8335C235.372 43.8335 235.372 43.8335 235.332 43.8336C235.372 43.753 235.413 43.7932 235.413 43.8335ZM237.102 42.946C237.143 43.0265 237.183 43.1473 237.224 43.2277C237.224 43.268 237.183 43.3486 237.143 43.3486C237.022 43.4293 236.942 43.3891 236.942 43.228C236.942 43.1072 236.982 43.0267 236.982 42.9059C236.982 42.9462 237.062 42.9461 237.102 42.946ZM239.034 42.6623C239.034 42.6623 238.994 42.7026 238.954 42.7026C238.954 42.6623 238.954 42.6221 238.914 42.5819C238.954 42.5818 238.954 42.5416 238.994 42.5415C239.034 42.5817 239.034 42.622 239.034 42.6623ZM237.745 41.8583C237.745 41.8583 237.786 41.8583 237.786 41.8986C237.786 41.9388 237.826 41.9388 237.826 41.9791C237.947 42.0192 238.027 42.0996 238.028 42.1802C238.068 42.1801 238.068 42.2204 238.108 42.2203L238.189 42.3008L238.108 42.2606C238.108 42.2203 238.068 42.2204 238.068 42.1801C237.947 42.14 237.907 42.0595 237.866 41.979C237.826 41.9791 237.826 41.9388 237.786 41.9388C237.745 41.8986 237.745 41.8583 237.745 41.8583C237.705 41.8584 237.705 41.8181 237.665 41.8182C237.705 41.7376 237.745 41.7778 237.745 41.8583ZM238.588 39.4418C238.548 39.3211 238.548 39.2406 238.669 39.16C238.709 39.1599 238.749 39.2001 238.789 39.2001C238.87 39.2805 238.91 39.361 238.991 39.4414C238.991 39.4817 238.991 39.522 238.951 39.5623C238.911 39.7636 238.709 39.643 238.588 39.4418ZM239.797 40.5277C239.837 40.5276 239.837 40.5276 239.878 40.5276C239.998 40.3262 240.078 40.1248 240.199 39.9234L240.199 39.8831L240.199 39.8428C240.118 39.8429 240.038 39.843 239.957 39.8431C239.837 39.8432 239.796 39.7627 239.796 39.6419C239.796 39.6017 239.836 39.5614 239.877 39.5211C239.957 39.4405 240.078 39.4806 240.118 39.6013C240.159 39.6818 240.159 39.7624 240.199 39.8428L240.239 39.8428C240.239 39.8831 240.199 39.8831 240.199 39.9234C240.239 40.0038 240.28 40.0843 240.28 40.1648C240.32 40.3259 240.24 40.4467 240.079 40.4871C239.998 40.5275 239.918 40.5276 239.878 40.5276L239.837 40.5679C239.797 40.5679 239.797 40.6082 239.757 40.6082C239.757 40.6888 239.757 40.8095 239.596 40.85L239.556 40.7292C239.596 40.6889 239.676 40.6486 239.717 40.6083C239.757 40.568 239.797 40.5679 239.797 40.5277ZM143.345 39.2159L143.224 39.1355L143.345 39.1354L143.345 39.2159ZM197.807 36.6648C197.767 36.7453 197.727 36.8259 197.687 36.9467C197.646 36.9065 197.606 36.8663 197.606 36.826C197.606 36.7857 197.606 36.7052 197.606 36.665C197.606 36.6247 197.686 36.5844 197.727 36.5441C197.727 36.5843 197.767 36.6245 197.807 36.6648ZM146.474 29.067C146.474 29.1073 146.394 29.1074 146.354 29.1074C146.313 29.0269 146.273 28.9464 146.233 28.866C146.273 28.8659 146.313 28.8256 146.353 28.8256C146.474 28.8657 146.514 28.9462 146.474 29.067ZM154.277 22.5772C154.438 22.6978 154.479 22.9796 154.399 23.1407C154.278 23.3019 154.117 23.302 153.996 23.2619C153.875 23.2217 153.755 23.1413 153.674 23.0609C153.754 23.0608 153.835 23.0205 153.915 23.0204C154.076 22.9397 154.157 22.8189 154.116 22.6578C154.116 22.5773 154.076 22.5371 154.036 22.4566C154.076 22.4566 154.156 22.4968 154.277 22.5772ZM156.087 20.9246C156.047 20.9247 156.007 20.9247 155.966 20.9248C155.926 20.8443 155.886 20.7235 155.845 20.6431L155.926 20.5625C155.966 20.5624 156.046 20.6026 156.047 20.6429C156.087 20.7233 156.087 20.8039 156.087 20.9246ZM159.83 20.478L159.83 20.5585C159.71 20.6392 159.549 20.7198 159.428 20.8005C159.307 20.8811 159.227 20.841 159.186 20.7202C159.186 20.68 159.227 20.6396 159.267 20.5993C159.388 20.5187 159.549 20.4783 159.669 20.3976C159.71 20.4379 159.75 20.4378 159.83 20.478ZM179.071 19.3313L179.031 19.4521L178.991 19.3314L179.071 19.3313Z" fill="#828282"/>
</svg>
