<svg width="41" height="41" viewBox="0 0 41 41" fill="none" xmlns="http://www.w3.org/2000/svg">
<rect width="41" height="41" rx="5" fill="#F3E1EF"/>
<path d="M29.2938 26.5055C28.8423 25.439 28.1871 24.4702 27.3646 23.6531C26.5446 22.8337 25.5733 22.1804 24.5042 21.7293C24.4947 21.7245 24.4851 21.7221 24.4755 21.7173C25.9667 20.6432 26.9361 18.8936 26.9361 16.9196C26.9361 13.6495 24.2792 11 21 11C17.7208 11 15.0639 13.6495 15.0639 16.9196C15.0639 18.8936 16.0333 20.6432 17.5245 21.7197C17.5149 21.7245 17.5053 21.7269 17.4958 21.7317C16.4234 22.1828 15.4612 22.8296 14.6354 23.6555C13.8137 24.4732 13.1586 25.4418 12.7062 26.5079C12.2617 27.5516 12.022 28.6706 12.0001 29.8043C11.9994 29.8297 12.0039 29.8551 12.0132 29.8788C12.0226 29.9025 12.0366 29.9242 12.0544 29.9424C12.0723 29.9606 12.0936 29.9751 12.1171 29.985C12.1407 29.9949 12.166 30 12.1915 30H13.6277C13.733 30 13.8168 29.9165 13.8192 29.8138C13.8671 27.9711 14.6091 26.2454 15.9208 24.9373C17.2779 23.5839 19.0803 22.8392 21 22.8392C22.9197 22.8392 24.722 23.5839 26.0792 24.9373C27.3909 26.2454 28.1329 27.9711 28.1808 29.8138C28.1832 29.9188 28.267 30 28.3723 30H29.8085C29.834 30 29.8593 29.9949 29.8829 29.985C29.9064 29.9751 29.9277 29.9606 29.9456 29.9424C29.9634 29.9242 29.9774 29.9025 29.9868 29.8788C29.9961 29.8551 30.0006 29.8297 29.9999 29.8043C29.976 28.6633 29.739 27.5534 29.2938 26.5055ZM21 21.0251C19.9013 21.0251 18.8673 20.5979 18.0894 19.8221C17.3115 19.0464 16.883 18.0152 16.883 16.9196C16.883 15.824 17.3115 14.7928 18.0894 14.0171C18.8673 13.2413 19.9013 12.8141 21 12.8141C22.0987 12.8141 23.1327 13.2413 23.9106 14.0171C24.6885 14.7928 25.117 15.824 25.117 16.9196C25.117 18.0152 24.6885 19.0464 23.9106 19.8221C23.1327 20.5979 22.0987 21.0251 21 21.0251Z" fill="#6D3088"/>
</svg>
