<svg width="44" height="44" viewBox="0 0 44 44" fill="none" xmlns="http://www.w3.org/2000/svg">
<rect width="44" height="44" rx="11" fill="#F3E1EF"/>
<path d="M14.9528 30.2505H29.3906C29.6955 30.2505 29.9889 30.3664 30.2116 30.5745C30.4344 30.7826 30.5698 31.0675 30.5906 31.3716C30.6114 31.6757 30.516 31.9764 30.3236 32.2129C30.1312 32.4493 29.8562 32.604 29.5543 32.6455L29.3906 32.6568H14.9528C14.648 32.6567 14.3545 32.5409 14.1318 32.3328C13.909 32.1246 13.7736 31.8397 13.7528 31.5356C13.732 31.2315 13.8275 30.9308 14.0198 30.6943C14.2122 30.4579 14.4872 30.3032 14.7892 30.2617L14.9528 30.2505H29.3906H14.9528ZM22.0081 11.0112L22.1717 11C22.4624 11 22.7434 11.1053 22.9625 11.2964C23.1816 11.4875 23.3241 11.7515 23.3636 12.0395L23.3749 12.2032V24.5363L26.9923 20.9204C27.1964 20.7165 27.4668 20.5926 27.7545 20.5714C28.0422 20.5502 28.3279 20.6331 28.5597 20.8049L28.6944 20.9204C28.8983 21.1244 29.0222 21.3949 29.0434 21.6826C29.0646 21.9703 28.9817 22.256 28.8099 22.4877L28.6944 22.6225L23.0219 28.2933C22.8182 28.4971 22.5481 28.621 22.2608 28.6425C21.9735 28.664 21.688 28.5816 21.4562 28.4104L21.3215 28.2933L15.649 22.6225C15.4337 22.4078 15.3077 22.1196 15.2963 21.8157C15.2849 21.5119 15.3889 21.2151 15.5874 20.9848C15.786 20.7546 16.0643 20.608 16.3665 20.5747C16.6687 20.5413 16.9723 20.6235 17.2163 20.8049L17.3511 20.9204L20.9686 24.5395V12.2032C20.9686 11.9124 21.0739 11.6315 21.265 11.4124C21.4561 11.1933 21.72 11.0508 22.0081 11.0112L22.1717 11L22.0081 11.0112Z" fill="#6D3088"/>
</svg>
